<?xml version="1.0" encoding="UTF-8"?>
<svg version="1.1" xmlns="http://www.w3.org/2000/svg" width="360" height="307">
<path d="M0 0 C4.95 0 9.9 0 15 0 C17.28284543 25.28395195 17 50.61953609 17 76 C42.74 76 68.48 76 95 76 C95.144375 69.4 95.28875 62.8 95.4375 56 C95.85404401 37.32935511 96.3716053 18.66465968 97 0 C102.28 0 107.56 0 113 0 C113.2637101 7.54659766 113.52500431 15.09327209 113.78230286 22.64009094 C113.90192948 26.14618016 114.02252385 29.65222995 114.14550781 33.15820312 C115.19003033 62.97236496 115.19003033 62.97236496 115 76 C118.63 76.33 122.26 76.66 126 77 C126 80.3 126 83.6 126 87 C128.64 87 131.28 87 134 87 C134 89.97 134 92.94 134 96 C136.64 96 139.28 96 142 96 C142 99.63 142 103.26 142 107 C85.57 107 29.14 107 -29 107 C-29 103.37 -29 99.74 -29 96 C-26.69 96 -24.38 96 -22 96 C-22 93.03 -22 90.06 -22 87 C-19.03 87 -16.06 87 -13 87 C-13 83.7 -13 80.4 -13 77 C-7.555 76.505 -7.555 76.505 -2 76 C-2.01160156 74.67355469 -2.02320312 73.34710938 -2.03515625 71.98046875 C-2.10851066 59.33303941 -1.92064647 46.70389541 -1.5625 34.0625 C-1.54285187 33.34049408 -1.52320374 32.61848816 -1.50296021 31.87460327 C-1.20907116 21.23310017 -0.6644183 10.62510951 0 0 Z " fill="#000000" transform="translate(123,113)"/>
<path d="M0 0 C3.30529333 2.68521542 6.46757325 5.51188249 9.59375 8.40234375 C10.10534668 8.8701123 10.61694336 9.33788086 11.14404297 9.81982422 C33.48198646 30.45744851 47.60465999 58.30284641 51.59375 88.40234375 C51.76430908 89.34432617 51.93486816 90.28630859 52.1105957 91.25683594 C54.47538448 106.65245928 53.22777353 123.3047696 49.59375 138.40234375 C49.3769458 139.36720703 49.3769458 139.36720703 49.15576172 140.3515625 C47.06049578 149.65148042 43.83764414 157.89312167 39.59375 166.40234375 C39.16578125 167.36398438 38.7378125 168.325625 38.296875 169.31640625 C34.33488921 177.96285759 28.79764587 185.24755427 22.94433594 192.68310547 C21.7274716 194.23212186 20.5377515 195.80236964 19.3515625 197.375 C18.77148438 198.04402344 18.19140625 198.71304688 17.59375 199.40234375 C16.93375 199.40234375 16.27375 199.40234375 15.59375 199.40234375 C15.325625 200.04171875 15.0575 200.68109375 14.78125 201.33984375 C13.59375 203.40234375 13.59375 203.40234375 10.59375 204.40234375 C10.26375 205.39234375 9.93375 206.38234375 9.59375 207.40234375 C7.46389581 209.26596617 5.33840073 211.00095939 3.09375 212.71484375 C2.5059375 213.17568359 1.918125 213.63652344 1.3125 214.11132812 C-14.3149231 226.21921305 -32.09399193 235.01690856 -51.40625 239.40234375 C-52.09686523 239.5631543 -52.78748047 239.72396484 -53.49902344 239.88964844 C-89.28460381 247.89149559 -125.94610807 239.77643372 -156.58691406 220.39135742 C-172.88607176 209.67557124 -185.83101465 195.70236202 -196.40625 179.40234375 C-196.93734375 178.63019531 -197.4684375 177.85804688 -198.015625 177.0625 C-209.51040265 159.48043418 -216.06427857 136.28702779 -216.40625 115.40234375 C-216.44492188 114.22800781 -216.48359375 113.05367187 -216.5234375 111.84375 C-217.16270174 78.28237757 -206.54303358 47.41973455 -185.40625 21.40234375 C-184.58060547 20.23251953 -184.58060547 20.23251953 -183.73828125 19.0390625 C-183.29871094 18.49894531 -182.85914063 17.95882812 -182.40625 17.40234375 C-181.74625 17.40234375 -181.08625 17.40234375 -180.40625 17.40234375 C-180.15875 16.82484375 -179.91125 16.24734375 -179.65625 15.65234375 C-178.22325012 13.07294396 -176.62200324 11.34112783 -174.40625 9.40234375 C-173.74625 9.40234375 -173.08625 9.40234375 -172.40625 9.40234375 C-172.40625 8.74234375 -172.40625 8.08234375 -172.40625 7.40234375 C-170.50453812 5.74854979 -168.60654255 4.22324525 -166.59375 2.71484375 C-165.99989502 2.26641113 -165.40604004 1.81797852 -164.79418945 1.35595703 C-145.53917369 -13.02929347 -125.15444803 -21.8425993 -101.40625 -25.59765625 C-99.82263672 -25.87609375 -99.82263672 -25.87609375 -98.20703125 -26.16015625 C-63.9833792 -30.09956944 -27.3962235 -21.41323154 0 0 Z M-122.34375 -13.91015625 C-123.08971436 -13.65596924 -123.83567871 -13.40178223 -124.60424805 -13.13989258 C-151.31352232 -3.7079419 -175.56760356 15.14115682 -190.40625 39.40234375 C-191.045625 40.43101563 -191.685 41.4596875 -192.34375 42.51953125 C-197.542951 51.10019544 -201.25468252 59.89239279 -204.40625 69.40234375 C-204.798125 70.56636719 -205.19 71.73039062 -205.59375 72.9296875 C-215.53493514 104.83650597 -210.29075061 138.96707572 -195.40625 168.40234375 C-193.88320904 170.92253261 -192.31310644 173.33124768 -190.5703125 175.703125 C-189.40625 177.40234375 -189.40625 177.40234375 -188.40625 180.40234375 C-187.74625 180.40234375 -187.08625 180.40234375 -186.40625 180.40234375 C-186.08720703 181.44261719 -186.08720703 181.44261719 -185.76171875 182.50390625 C-184.00487763 186.26060974 -181.56966776 188.80649712 -178.71875 191.77734375 C-178.17275146 192.35460205 -177.62675293 192.93186035 -177.06420898 193.52661133 C-175.98825806 194.66078228 -174.90902375 195.79184947 -173.82617188 196.91943359 C-172.70988739 198.08523689 -171.60965823 199.2664154 -170.515625 200.453125 C-151.20923423 220.88084654 -121.2146548 234.59799649 -93.17195129 235.81417847 C-89.56157003 235.91141042 -85.95520321 235.92396004 -82.34375 235.90234375 C-81.58366638 235.90124603 -80.82358276 235.90014832 -80.04046631 235.89901733 C-66.99326751 235.84518803 -54.88157769 234.429208 -42.40625 230.40234375 C-41.18808594 230.01820313 -39.96992188 229.6340625 -38.71484375 229.23828125 C-20.9102881 222.93919658 -6.06241976 212.28978872 7.59375 199.40234375 C8.33109375 198.72945312 9.0684375 198.0565625 9.828125 197.36328125 C33.97189002 174.50375905 45.80575091 141.62498134 46.94067383 108.86303711 C47.31620943 80.96564023 37.53313687 56.43912938 22.59375 33.40234375 C21.95953125 32.39429688 21.3253125 31.38625 20.671875 30.34765625 C18.53642262 27.32109404 16.26871262 24.95981168 13.59375 22.40234375 C12.50316854 21.2949479 11.41612737 20.18405803 10.33203125 19.0703125 C9.19016694 17.91009446 8.04823901 16.74993904 6.90625 15.58984375 C6.32552734 14.99236328 5.74480469 14.39488281 5.14648438 13.77929688 C3.66649424 12.28219702 2.13392218 10.83745644 0.59375 9.40234375 C-0.06625 9.40234375 -0.72625 9.40234375 -1.40625 9.40234375 C-1.40625 8.74234375 -1.40625 8.08234375 -1.40625 7.40234375 C-3.53900488 5.75374874 -5.65688921 4.25307965 -7.90625 2.77734375 C-8.92078247 2.1107373 -8.92078247 2.1107373 -9.95581055 1.43066406 C-19.92084355 -4.98683097 -30.24678128 -10.08280807 -41.46875 -13.91015625 C-42.13946533 -14.14057617 -42.81018066 -14.37099609 -43.5012207 -14.60839844 C-55.50359226 -18.47344869 -67.27624372 -20.10297954 -79.81298828 -19.98876953 C-81.90593564 -19.97265867 -83.99695336 -19.98874622 -86.08984375 -20.0078125 C-98.58182333 -20.0281972 -110.49400367 -17.98061459 -122.34375 -13.91015625 Z " fill="#020202" transform="translate(262.40625,34.59765625)"/>
<path d="M0 0 C1.66675781 0.80244141 1.66675781 0.80244141 3.3671875 1.62109375 C4.52476562 2.22050781 5.68234375 2.81992187 6.875 3.4375 C13.96315602 7.04919022 21.14712693 10.42770505 28.375 13.75 C29.46659424 14.25176758 30.55818848 14.75353516 31.68286133 15.27050781 C35.12113377 16.84869854 38.56048117 18.42452771 42 20 C46.8557693 22.22568873 51.70943796 24.45591299 56.5625 26.6875 C58.25802002 27.46335449 58.25802002 27.46335449 59.98779297 28.25488281 C61.02436035 28.73151367 62.06092773 29.20814453 63.12890625 29.69921875 C64.04744385 30.12033936 64.96598145 30.54145996 65.91235352 30.9753418 C68 32 68 32 69 33 C69 35.31 69 37.62 69 40 C18.18 40 -32.64 40 -85 40 C-85 34 -85 34 -83.34350586 32.2902832 C-80.76539539 30.87083182 -78.18395311 29.57375302 -75.50390625 28.35546875 C-74.40208008 27.85031738 -73.30025391 27.34516602 -72.16503906 26.82470703 C-70.97620117 26.28442871 -69.78736328 25.74415039 -68.5625 25.1875 C-66.02569386 24.0257093 -63.4910111 22.85934713 -60.95703125 21.69140625 C-60.30443329 21.39083313 -59.65183533 21.09026001 -58.97946167 20.78057861 C-52.481576 17.77818623 -46.04191588 14.6597506 -39.60626221 11.5267334 C-35.44982272 9.50762193 -31.28253974 7.51093438 -27.11767578 5.50927734 C-24.3686829 4.17848063 -21.63457226 2.82175915 -18.90234375 1.45703125 C-17.49817738 0.78222547 -16.09330982 0.10887529 -14.6875 -0.5625 C-13.55699219 -1.12066406 -12.42648438 -1.67882813 -11.26171875 -2.25390625 C-6.72039654 -3.29269971 -4.0801632 -1.99982183 0 0 Z " fill="#000000" transform="translate(187,59)"/>
<path d="M0 0 C40.92 0 81.84 0 124 0 C124 3.63 124 7.26 124 11 C83.08 11 42.16 11 0 11 C0 7.37 0 3.74 0 0 Z " fill="#030303" transform="translate(117,101)"/>
<path d="M0 0 C5.28 0 10.56 0 16 0 C16.77904061 4.67424367 17.18475279 8.81964746 17.31640625 13.51953125 C17.33723267 14.24374268 17.35805908 14.9679541 17.3795166 15.71411133 C17.44547686 18.08013723 17.50444737 20.44626775 17.5625 22.8125 C17.59426834 24.02430435 17.59426834 24.02430435 17.62667847 25.2605896 C18.06676479 42.17527526 18.10051009 59.08080095 18 76 C11.73 76 5.46 76 -1 76 C-1.18992395 50.65570467 -0.60342369 25.33577067 0 0 Z " fill="#000000" transform="translate(187,113)"/>
<path d="M0 0 C2.47923801 -0.02685095 4.9581884 -0.04676547 7.4375 -0.0625 C8.14455078 -0.07087891 8.85160156 -0.07925781 9.58007812 -0.08789062 C11.38693559 -0.09653588 13.19387603 -0.05220011 15 0 C16.80735105 1.80735105 16.22600083 4.58863268 16.29711914 7.02929688 C16.3570681 8.96766418 16.3570681 8.96766418 16.41822815 10.94519043 C16.4573437 12.36970646 16.49631608 13.79422643 16.53515625 15.21875 C16.57818369 16.67550781 16.62160033 18.13225416 16.66539001 19.58898926 C16.75649922 22.65234827 16.84445589 25.71577556 16.92993164 28.77929688 C17.03893424 32.68520644 17.15317577 36.59093801 17.26950932 40.49663544 C17.38071108 44.23728767 17.48929879 47.97801447 17.59765625 51.71875 C17.61828691 52.42406357 17.63891758 53.12937714 17.66017342 53.85606384 C17.71895702 55.8825176 17.77564853 57.9090317 17.83227539 59.93554688 C17.86478897 61.08502808 17.89730255 62.23450928 17.93080139 63.41882324 C18.0118223 67.61182956 18 71.80621098 18 76 C11.4 76 4.8 76 -2 76 C-2.14405718 60.81097076 -1.61660724 45.66041366 -1.07287598 30.48254395 C-0.95005571 27.03596447 -0.83065921 23.58926637 -0.7109375 20.14257812 C-0.47704173 13.42827439 -0.23984587 6.71409368 0 0 Z " fill="#000000" transform="translate(155,113)"/>
<path d="M0 0 C4.95 0 9.9 0 15 0 C13 2 13 2 10.72265625 2.16015625 C9.40587891 2.11181641 9.40587891 2.11181641 8.0625 2.0625 C4.91186403 1.95577743 3.02998649 1.9900045 0 3 C0 2.01 0 1.02 0 0 Z " fill="#0F0F0F" transform="translate(155,113)"/>
</svg>
