<?xml version="1.0" encoding="UTF-8"?>
<svg version="1.1" xmlns="http://www.w3.org/2000/svg" width="603" height="376">
<path d="M0 0 C9.86013986 0 9.86013986 0 16 3 C18.60387772 3.99744765 21.24045887 4.89949736 23.875 5.8125 C24.61331055 6.07111816 25.35162109 6.32973633 26.11230469 6.59619141 C29.10819591 7.64545242 32.10589727 8.6894497 35.10449219 9.73095703 C44.59021992 13.02807453 53.9991033 16.48765284 63.37133789 20.09570312 C69.69900315 22.52639166 76.06161249 24.81449724 82.48046875 26.9921875 C85 28 85 28 87 30 C75.410394 35.15618563 63.39862875 39.18279768 51.4375 43.375 C33.74665368 49.58573019 33.74665368 49.58573019 16.09765625 55.9140625 C15.30233994 56.19792816 14.50702362 56.48179382 13.68760681 56.77426147 C9.48080052 58.28085502 9.48080052 58.28085502 6 61 C5.78806442 63.61763995 5.6960181 66.12684705 5.69921875 68.74609375 C5.69279106 69.89646873 5.69279106 69.89646873 5.68623352 71.07008362 C5.68048677 72.69327812 5.67999251 74.31649838 5.68432617 75.93969727 C5.6874834 78.42443794 5.66404246 80.90798502 5.63867188 83.39257812 C5.63639864 84.9687485 5.6356955 86.54492207 5.63671875 88.12109375 C5.627509 88.86491806 5.61829926 89.60874237 5.60881042 90.37510681 C5.61933048 94.31523895 5.61933048 94.31523895 7.21142578 97.82543945 C9.41047068 99.26955698 11.62410187 100.49764699 13.98046875 101.671875 C14.97151611 102.16776123 15.96256348 102.66364746 16.98364258 103.17456055 C18.04091553 103.69445557 19.09818848 104.21435059 20.1875 104.75 C21.27377686 105.28858643 22.36005371 105.82717285 23.47924805 106.38208008 C29.98241684 109.58378098 36.52101921 112.64390007 43.18774414 115.48730469 C56.34663542 121.10712366 69.32062461 127.36823997 82 134 C82.95132813 134.41507813 83.90265625 134.83015625 84.8828125 135.2578125 C85.58148438 135.83273438 86.28015625 136.40765625 87 137 C87 139.31 87 141.62 87 144 C29.91 144 -27.18 144 -86 144 C-86 141.36 -86 138.72 -86 136 C-85.13761719 135.59910156 -84.27523437 135.19820312 -83.38671875 134.78515625 C-64.36797733 125.9880799 -64.36797733 125.9880799 -45.5625 116.75 C-37.12836646 112.4878041 -28.52966205 108.57099508 -19.94750977 104.61816406 C-12.56145275 101.2131855 -12.56145275 101.2131855 -5.2734375 97.60546875 C-2 96 -2 96 0 96 C0 64.32 0 32.64 0 0 Z " fill="#010101" transform="translate(151,68)"/>
<path d="M0 0 C51.15 0 102.3 0 155 0 C155 3.3 155 6.6 155 10 C158.3 10 161.6 10 165 10 C165 13.63 165 17.26 165 21 C167.64 21 170.28 21 173 21 C173 24.96 173 28.92 173 33 C109.64 33 46.28 33 -19 33 C-19 29.04 -19 25.08 -19 21 C-16.03 21 -13.06 21 -10 21 C-10 17.37 -10 13.74 -10 10 C-6.7 10 -3.4 10 0 10 C0 6.7 0 3.4 0 0 Z " fill="#000000" transform="translate(74,315)"/>
<path d="M0 0 C0.82724075 -0.0033284 1.65448151 -0.0066568 2.50679016 -0.01008606 C4.26794886 -0.01515972 6.02911721 -0.01749425 7.7902832 -0.01733398 C10.43262699 -0.01948592 13.07452899 -0.0375387 15.71679688 -0.05664062 C52.97895392 -0.18098549 52.97895392 -0.18098549 64.80078125 11.16796875 C71.06215142 19.5336757 71.95220377 27.979624 70.80078125 38.16796875 C69.63232376 44.20974892 66.46443871 49.20626386 61.80078125 53.16796875 C58.56554239 55.08299803 55.25422772 56.68694526 51.80078125 58.16796875 C53.78039863 59.16439086 55.76225267 60.14973853 57.765625 61.09765625 C65.83725445 64.96564501 69.92618446 69.07602237 73.80078125 77.16796875 C76.5178095 85.31905349 75.82137872 96.27518631 72.125 103.9921875 C66.40012292 113.39854896 58.94606425 118.55143383 48.48828125 121.58984375 C41.32995576 123.12971609 34.31910968 123.31617846 27.02734375 123.30078125 C25.51991104 123.30221634 25.51991104 123.30221634 23.98202515 123.30368042 C21.87261899 123.30435733 19.76321069 123.30253734 17.65380859 123.29833984 C14.41499219 123.2929508 11.17631233 123.29831864 7.9375 123.3046875 C5.88411428 123.30402729 3.83072864 123.30274732 1.77734375 123.30078125 C0.32118149 123.3038176 0.32118149 123.3038176 -1.16439819 123.30691528 C-2.50687119 123.30218704 -2.50687119 123.30218704 -3.87646484 123.29736328 C-4.66507904 123.29656769 -5.45369324 123.29577209 -6.26620483 123.29495239 C-8.19921875 123.16796875 -8.19921875 123.16796875 -10.19921875 122.16796875 C-10.19921875 82.23796875 -10.19921875 42.30796875 -10.19921875 1.16796875 C-6.99703911 -0.43312107 -3.51747573 0.00491936 0 0 Z M4.80078125 14.16796875 C4.77613276 19.56143863 4.75794594 24.954876 4.74584961 30.34838867 C4.74080894 32.1846575 4.73397648 34.02092229 4.7253418 35.85717773 C4.71326453 38.49073276 4.70755044 41.12423491 4.703125 43.7578125 C4.69796371 44.58385483 4.69280243 45.40989716 4.68748474 46.26097107 C4.6872892 48.23033243 4.73873973 50.19958489 4.80078125 52.16796875 C7.44154283 54.80873033 15.12727612 53.35360895 18.67578125 53.35546875 C20.46242188 53.37383789 20.46242188 53.37383789 22.28515625 53.39257812 C37.43240972 53.4287877 37.43240972 53.4287877 50.80078125 47.16796875 C55.00343201 41.98970264 55.36615944 36.42747817 55.12109375 29.94140625 C54.56956206 25.16594892 52.9874179 22.42652277 49.73828125 18.98046875 C40.5682878 13.32238769 30.56449992 13.79705699 20.17578125 13.98046875 C18.67970104 13.99554955 17.18360605 14.00923192 15.6875 14.02148438 C12.05828157 14.0542057 8.42962877 14.10579819 4.80078125 14.16796875 Z M4.80078125 66.16796875 C4.80078125 80.35796875 4.80078125 94.54796875 4.80078125 109.16796875 C7.80569429 110.67042527 10.86467071 110.23414876 14.15234375 110.15234375 C15.25163712 110.12759979 15.25163712 110.12759979 16.37313843 110.10235596 C17.92835718 110.06482011 19.48350561 110.02426924 21.03857422 109.98095703 C23.39542673 109.91876968 25.75207243 109.87696415 28.109375 109.8359375 C29.62373108 109.7968369 31.13805608 109.75650984 32.65234375 109.71484375 C33.69655991 109.70055328 33.69655991 109.70055328 34.76187134 109.68597412 C42.42197947 109.42418992 48.75452256 106.94686889 54.39453125 101.69140625 C58.51558193 97.22693467 58.70257337 91.00687358 58.80078125 85.16796875 C58.28532315 78.77628833 55.53890629 74.41089782 50.80078125 70.16796875 C44.57009018 66.35325993 38.81969701 66.02011897 31.65625 66.0703125 C30.97324829 66.07131958 30.29024658 66.07232666 29.58654785 66.07336426 C27.05377505 66.07856618 24.52102633 66.0925273 21.98828125 66.10546875 C13.48046875 66.13640625 13.48046875 66.13640625 4.80078125 66.16796875 Z " fill="#070404" transform="translate(263.19921875,65.83203125)"/>
<path d="M0 0 C0.85180847 -0.0033284 1.70361694 -0.0066568 2.58123779 -0.01008606 C4.39367127 -0.01515929 6.20611412 -0.01749426 8.01855469 -0.01733398 C10.74430694 -0.01948968 13.4696336 -0.03755393 16.1953125 -0.05664062 C36.63634045 -0.12464941 56.05093533 1.61529368 71.7265625 16.1953125 C83.48713912 28.46625377 87.13514567 43.85337706 86.984375 60.41796875 C86.97607666 61.5994751 86.96777832 62.78098145 86.95922852 63.99829102 C86.64059719 80.55237921 82.8902358 94.66633917 71.234375 107.04296875 C54.9659585 122.21402157 33.52747294 123.53034082 12.36523438 123.3737793 C9.75901777 123.35519886 7.15315179 123.3532725 4.546875 123.35351562 C2.88541358 123.3486104 1.22395455 123.34278649 -0.4375 123.3359375 C-1.60294342 123.33426826 -1.60294342 123.33426826 -2.79193115 123.33256531 C-8.22075231 123.2841551 -8.22075231 123.2841551 -10.453125 122.16796875 C-10.453125 82.23796875 -10.453125 42.30796875 -10.453125 1.16796875 C-7.18902424 -0.46408163 -3.58720793 0.004864 0 0 Z M4.546875 14.16796875 C4.546875 45.51796875 4.546875 76.86796875 4.546875 109.16796875 C34.50291568 110.19849933 34.50291568 110.19849933 59.359375 96.91796875 C69.59255495 85.8661344 71.19404297 70.52594317 70.76953125 56.0859375 C70.49447951 51.24599197 69.93868431 46.81001485 68.546875 42.16796875 C68.31355469 41.35199219 68.08023438 40.53601563 67.83984375 39.6953125 C64.3210526 29.29961443 57.05764902 22.38973767 47.515625 17.32421875 C33.27189328 11.77666008 20.52531973 14.16796875 4.546875 14.16796875 Z " fill="#0A0708" transform="translate(475.453125,65.83203125)"/>
<path d="M0 0 C0.70253906 0.64710937 1.40507812 1.29421875 2.12890625 1.9609375 C2.12890625 2.6209375 2.12890625 3.2809375 2.12890625 3.9609375 C2.78890625 3.9609375 3.44890625 3.9609375 4.12890625 3.9609375 C10.88686566 16.54686191 10.88686566 16.54686191 11.12890625 22.9609375 C11.17789063 23.6209375 11.226875 24.2809375 11.27734375 24.9609375 C11.80980153 36.42925895 8.17572832 46.16989117 0.60546875 54.671875 C-10.30266843 65.15432877 -26.25665117 66.31182603 -40.55859375 66.0859375 C-46.15828125 66.0240625 -46.15828125 66.0240625 -51.87109375 65.9609375 C-51.87109375 81.4709375 -51.87109375 96.9809375 -51.87109375 112.9609375 C-63.12109375 114.8359375 -63.12109375 114.8359375 -66.87109375 112.9609375 C-66.87109375 73.0309375 -66.87109375 33.1009375 -66.87109375 -8.0390625 C-17.62329384 -12.51613522 -17.62329384 -12.51613522 0 0 Z M-51.87109375 4.9609375 C-51.87109375 20.8009375 -51.87109375 36.6409375 -51.87109375 52.9609375 C-29.19273711 54.05721937 -29.19273711 54.05721937 -9.87109375 44.9609375 C-4.58930242 38.6171987 -4.20807971 30.86888683 -4.87109375 22.9609375 C-6.10679228 17.35650951 -8.33298511 13.59142442 -12.87109375 9.9609375 C-19.1941269 6.16455248 -24.65041323 4.82684548 -32.046875 4.86328125 C-33.09012939 4.86577881 -34.13338379 4.86827637 -35.20825195 4.87084961 C-37.17604614 4.88450562 -37.17604614 4.88450562 -39.18359375 4.8984375 C-45.46390625 4.929375 -45.46390625 4.929375 -51.87109375 4.9609375 Z " fill="#020105" transform="translate(429.87109375,75.0390625)"/>
<path d="M0 0 C9.86013986 0 9.86013986 0 16 3 C18.60387772 3.99744765 21.24045887 4.89949736 23.875 5.8125 C24.98246582 6.20042725 24.98246582 6.20042725 26.11230469 6.59619141 C29.10819591 7.64545242 32.10589727 8.6894497 35.10449219 9.73095703 C44.59021992 13.02807453 53.9991033 16.48765284 63.37133789 20.09570312 C69.69900315 22.52639166 76.06161249 24.81449724 82.48046875 26.9921875 C85 28 85 28 87 30 C75.410394 35.15618563 63.39862875 39.18279768 51.4375 43.375 C33.74665368 49.58573019 33.74665368 49.58573019 16.09765625 55.9140625 C14.90468178 56.33986099 14.90468178 56.33986099 13.68760681 56.77426147 C9.48080052 58.28085502 9.48080052 58.28085502 6 61 C5.65591718 63.50004478 5.55800997 65.97204261 5.44140625 68.4921875 C4.92641872 71.41804584 4.02978563 72.85550904 2 75 C1.34 75 0.68 75 0 75 C0 50.25 0 25.5 0 0 Z " fill="#0E0E0C" transform="translate(151,68)"/>
<path d="M0 0 C5.61 0 11.22 0 17 0 C17.97330895 8.43381628 18.29962673 16.83403327 18.53515625 25.31640625 C18.57829843 26.7827177 18.62171486 28.2490211 18.66539001 29.71531677 C18.75572042 32.77198593 18.84375784 35.82870892 18.92993164 38.88549805 C19.03979262 42.78103197 19.15388335 46.67642692 19.26950932 50.57179356 C19.3590175 53.59426106 19.44705104 56.61677001 19.53457451 59.63929558 C19.57616987 61.07485669 19.61803012 62.51041015 19.66017342 63.94595528 C19.87468103 71.29993135 20.0521002 78.64274292 20 86 C17.22579252 86.72779347 14.79817622 87.12808205 11.92578125 87.1328125 C11.17619141 87.13410156 10.42660156 87.13539063 9.65429688 87.13671875 C8.49510742 87.13091797 8.49510742 87.13091797 7.3125 87.125 C6.1359082 87.13080078 6.1359082 87.13080078 4.93554688 87.13671875 C-0.87332251 87.12667749 -0.87332251 87.12667749 -2 86 C-2.10121085 84.30061261 -2.13082852 82.59692874 -2.1328125 80.89453125 C-2.13482666 79.7844873 -2.13684082 78.67444336 -2.13891602 77.53076172 C-2.13432373 76.30373535 -2.12973145 75.07670898 -2.125 73.8125 C-2.12234131 72.53906738 -2.11968262 71.26563477 -2.11694336 69.95361328 C-2.02728075 46.63284691 -1.42931956 23.27748999 0 0 Z " fill="#010101" transform="translate(88,227)"/>
<path d="M0 0 C5.61 0 11.22 0 17 0 C17.80649646 4.0324823 18.17790297 7.42673035 18.29711914 11.49584961 C18.3570681 13.43958717 18.3570681 13.43958717 18.41822815 15.42259216 C18.45735305 16.83250524 18.49632511 18.24242256 18.53515625 19.65234375 C18.57825556 21.11382454 18.62167221 22.575296 18.66539001 24.03675842 C18.75620079 27.10231681 18.84416591 30.16793897 18.92993164 33.23364258 C19.03882866 37.12325427 19.15316751 41.01268039 19.26950932 44.90207577 C19.35956452 47.92474085 19.44741689 50.94746685 19.53457451 53.97021675 C19.57595496 55.40165152 19.61780518 56.83307281 19.66017342 58.26447868 C19.93167067 67.51279059 20.05223759 76.74763437 20 86 C17.72926921 87.1353654 16.45716721 87.12892412 13.9375 87.1328125 C13.14085937 87.13410156 12.34421875 87.13539063 11.5234375 87.13671875 C10.69070312 87.13285156 9.85796875 87.12898438 9 87.125 C8.16726562 87.12886719 7.33453125 87.13273437 6.4765625 87.13671875 C5.67992187 87.13542969 4.88328125 87.13414062 4.0625 87.1328125 C3.33160156 87.13168457 2.60070312 87.13055664 1.84765625 87.12939453 C0 87 0 87 -2 86 C-2.16288383 68.05449994 -1.68374509 50.14814048 -1.07287598 32.21630859 C-0.94943656 28.56812579 -0.83040441 24.91979904 -0.7109375 21.27148438 C-0.47813084 14.18084678 -0.24025472 7.09038973 0 0 Z " fill="#010101" transform="translate(124,227)"/>
<path d="M0 0 C2.81256281 -0.02684312 5.62487241 -0.04676188 8.4375 -0.0625 C9.23994141 -0.07087891 10.04238281 -0.07925781 10.86914062 -0.08789062 C12.91295221 -0.0965143 14.95683902 -0.0522815 17 0 C18.7867119 1.7867119 18.22468483 4.4503689 18.29711914 6.87060547 C18.3570681 8.7605574 18.3570681 8.7605574 18.41822815 10.68869019 C18.45738646 12.08151751 18.49635733 13.47435012 18.53515625 14.8671875 C18.57822689 16.2999879 18.6216436 17.73277793 18.66539001 19.16555786 C18.75659808 22.18695163 18.84449122 25.20841821 18.92993164 28.22998047 C19.03795846 32.04586027 19.15258498 35.86150347 19.26949501 39.67712021 C19.74080601 55.11870315 20.17224191 70.54926282 20 86 C17.54749907 87.22625047 16.15689565 87.03425355 13.4296875 86.87890625 C12.08583984 86.80639648 12.08583984 86.80639648 10.71484375 86.73242188 C9.77769531 86.67634766 8.84054688 86.62027344 7.875 86.5625 C6.93011719 86.51029297 5.98523438 86.45808594 5.01171875 86.40429688 C2.67415433 86.27443219 0.33706204 86.13853199 -2 86 C-2.0611822 75.32461582 -1.87916188 64.67393745 -1.5625 54.00390625 C-1.51747282 52.43351263 -1.47263603 50.86311353 -1.42797852 49.29270935 C-1.31149664 45.21412635 -1.19247692 41.13562147 -1.07287598 37.05712891 C-0.95065658 32.87341762 -0.83090999 28.68963559 -0.7109375 24.50585938 C-0.47633925 16.33716951 -0.23905217 8.16856073 0 0 Z " fill="#000000" transform="translate(197,227)"/>
<path d="M0 0 C1.58206422 0.00574487 3.16410406 0.01876032 4.74609375 0.03515625 C6.25121815 0.04664511 7.75634534 0.05777129 9.26147461 0.06860352 C10.55577393 0.07819092 11.85007324 0.08777832 13.18359375 0.09765625 C13.99677753 13.5546006 14.43408101 26.99869735 14.6862793 40.47729492 C14.74609231 43.66007937 14.81116221 46.8427247 14.87695312 50.02539062 C15.11760857 62.05222494 15.22761085 74.06841236 15.18359375 86.09765625 C8.25359375 86.09765625 1.32359375 86.09765625 -5.81640625 86.09765625 C-6.00626855 32.67624645 -6.00626855 32.67624645 -5.37890625 13.28515625 C-5.33967041 12.02630615 -5.30043457 10.76745605 -5.26000977 9.47045898 C-4.90962071 0.12563001 -4.90962071 0.12563001 0 0 Z " fill="#000000" transform="translate(164.81640625,226.90234375)"/>
<path d="M0 0 C18.10607661 -0.02311809 36.21214818 -0.04097876 54.31823635 -0.05181217 C62.72461384 -0.05697531 71.13098201 -0.06401834 79.53735352 -0.07543945 C86.86167932 -0.08538575 94.18599837 -0.0918533 101.51033074 -0.09408849 C105.39090787 -0.09539569 109.2714657 -0.09848212 113.15203667 -0.10573006 C116.80039557 -0.11248942 120.44872711 -0.11461713 124.09709167 -0.11310768 C126.08288419 -0.11351637 128.0686737 -0.118912 130.05445862 -0.12442017 C131.2254007 -0.1230455 132.39634277 -0.12167084 133.60276794 -0.12025452 C134.62687995 -0.12117631 135.65099195 -0.1220981 136.70613766 -0.12304783 C139 0 139 0 140 1 C140.09823937 2.66429051 140.12973631 4.33281931 140.125 6 C140.12757813 6.9075 140.13015625 7.815 140.1328125 8.75 C140 11 140 11 139 12 C137.20305962 12.09639184 135.40229107 12.12187425 133.60276794 12.12025452 C131.84635483 12.12231651 131.84635483 12.12231651 130.05445862 12.12442017 C128.75830124 12.12082489 127.46214386 12.11722961 126.12670898 12.11352539 C124.75712079 12.11324352 123.38753244 12.11340125 122.01794434 12.1139679 C118.28877052 12.11425588 114.55962859 12.10835909 110.83046222 12.10139394 C106.93735587 12.09516047 103.04424887 12.09455661 99.15113831 12.09336853 C91.77401854 12.09025519 84.39691351 12.08204178 77.01980025 12.07201904 C68.62332457 12.06085797 60.22684821 12.05534747 51.83036697 12.05032361 C34.5535692 12.03985916 17.27678672 12.02205924 0 12 C0 8.04 0 4.08 0 0 Z " fill="#010101" transform="translate(81,214)"/>
<path d="M0 0 C3 3 3 3 3.36914349 5.22761059 C3.36637811 6.10239213 3.36361273 6.97717367 3.36076355 7.87846375 C3.36694954 9.38657623 3.36694954 9.38657623 3.3732605 10.92515564 C3.36247467 12.0271077 3.35168884 13.12905975 3.34057617 14.2644043 C3.34123329 16.00607376 3.34123329 16.00607376 3.34190369 17.78292847 C3.33980958 21.63019483 3.3164485 25.47702828 3.29296875 29.32421875 C3.28737501 31.98794798 3.28295634 34.65165307 3.28010559 37.31538391 C3.27077819 43.6158595 3.24615512 49.91617907 3.21605712 56.21658593 C3.18253465 63.38941114 3.16603254 70.56224377 3.15097082 77.73512781 C3.11960609 92.49016503 3.06683214 107.2450798 3 122 C2.01 121.67 1.02 121.34 0 121 C0 81.07 0 41.14 0 0 Z " fill="#5D381F" transform="translate(363,67)"/>
<path d="M0 0 C3.43998071 1.20864187 5.49924271 2.38557192 8 5 C8.99 5.33 9.98 5.66 11 6 C14.31698019 13.00251373 14.59658734 19.89846203 13.5 27.4375 C11.10725872 33.12026055 7.08692705 38.44933524 1.48828125 41.26171875 C-1.39106085 42.11602904 -4.01813443 42 -7 42 C-7 41.34 -7 40.68 -7 40 C-5.205625 39.4121875 -5.205625 39.4121875 -3.375 38.8125 C1.63114903 36.92187989 5.48490215 34.52516309 8.3125 29.8125 C10.09921584 22.50320791 10.6141066 16.12938164 8 9 C5.76364392 5.63401695 2.92792193 2.77382078 0 0 Z " fill="#3F2113" transform="translate(311,134)"/>
<path d="M0 0 C0.66 0.33 1.32 0.66 2 1 C2.49747078 3.38785974 2.80864706 5.58075217 3 8 C3.05414063 8.67417969 3.10828125 9.34835938 3.1640625 10.04296875 C3.5808161 20.44286537 0.76044738 30.03909935 -6 38 C-9.8164725 41.9196204 -13.85264386 45.01124877 -19 47 C-19.99 46.67 -20.98 46.34 -22 46 C-21.38125 45.731875 -20.7625 45.46375 -20.125 45.1875 C-17.7004767 44.04443152 -17.7004767 44.04443152 -16 41 C-15.01 41 -14.02 41 -13 41 C-10.00085621 39.14758766 -9.14099526 38.42298577 -8 35 C-7.34 35 -6.68 35 -6 35 C-5.86464844 34.42378906 -5.72929687 33.84757812 -5.58984375 33.25390625 C-5.02324401 31.08881984 -4.34223295 29.03429481 -3.5625 26.9375 C-3.31628906 26.26589844 -3.07007813 25.59429687 -2.81640625 24.90234375 C-2 23 -2 23 0 20 C0.27478373 17.77514259 0.27478373 17.77514259 0.1953125 15.33203125 C0.18886719 14.43935547 0.18242187 13.54667969 0.17578125 12.62695312 C0.15902344 11.69818359 0.14226562 10.76941406 0.125 9.8125 C0.11597656 8.87212891 0.10695313 7.93175781 0.09765625 6.96289062 C0.07409056 4.64167032 0.04119116 2.32096356 0 0 Z " fill="#0D1B37" transform="translate(438,90)"/>
<path d="M0 0 C0.66 0 1.32 0 2 0 C6.97334298 8.19269446 7.28958713 17.18970101 5.52734375 26.49609375 C3.52821299 32.63713614 -0.71056471 37.47370981 -6 41 C-6.99 40.67 -7.98 40.34 -9 40 C-7.9275 39.4225 -6.855 38.845 -5.75 38.25 C-0.50126136 34.53125805 0.52187281 28.98480847 2 23 C2.433125 21.2984375 2.433125 21.2984375 2.875 19.5625 C3.10485521 13.01162655 2.07410674 6.22232021 0 0 Z " fill="#060C27" transform="translate(328,80)"/>
<path d="M0 0 C3.65316671 1.24976756 4.78065836 1.67098753 7 5 C7.58095038 8.78643412 7.65107846 12.61251132 7.8125 16.4375 C7.87630859 17.48744141 7.94011719 18.53738281 8.00585938 19.61914062 C8.05162109 20.63041016 8.09738281 21.64167969 8.14453125 22.68359375 C8.18940674 23.60712646 8.23428223 24.53065918 8.28051758 25.48217773 C7.94177907 28.52256961 7.1112361 29.81792331 5 32 C2.3125 32.75 2.3125 32.75 0 33 C0.433125 31.9790625 0.433125 31.9790625 0.875 30.9375 C4.73454686 20.8597943 5.34348711 12.90315061 1 3 C0.67 2.01 0.34 1.02 0 0 Z " fill="#472410" transform="translate(420,87)"/>
<path d="M0 0 C0.66 0 1.32 0 2 0 C2 14.85 2 29.7 2 45 C1.34 45 0.68 45 0 45 C-1.07045596 39.87478663 -1.04976654 35.07850552 -0.87890625 29.8828125 C-0.85529526 29.02565643 -0.83168427 28.16850037 -0.80735779 27.28536987 C-0.73118088 24.56505852 -0.64696063 21.8450655 -0.5625 19.125 C-0.50923321 17.27345274 -0.45649317 15.42189025 -0.40429688 13.5703125 C-0.27562847 9.04667589 -0.13974909 4.5233073 0 0 Z " fill="#0D1A37" transform="translate(266,131)"/>
<path d="M0 0 C1.98 0.495 1.98 0.495 4 1 C3.34 1 2.68 1 2 1 C2 14.2 2 27.4 2 41 C1.34 41 0.68 41 0 41 C-0.1674126 35.48259702 -0.32799286 29.96505413 -0.48217773 24.44726562 C-0.53562556 22.56928117 -0.59095705 20.69134937 -0.64819336 18.81347656 C-0.7300268 16.11795404 -0.80513683 13.42231625 -0.87890625 10.7265625 C-0.90594131 9.88380768 -0.93297638 9.04105286 -0.96083069 8.17276001 C-1.11387171 2.22774341 -1.11387171 2.22774341 0 0 Z " fill="#0D1834" transform="translate(266,79)"/>
<path d="M0 0 C6.46712188 1.16194152 12.09622349 3.1248748 18 6 C17 8 17 8 14.49609375 8.8515625 C13.48675781 9.10679688 12.47742188 9.36203125 11.4375 9.625 C10.42558594 9.88539062 9.41367188 10.14578125 8.37109375 10.4140625 C7.58863281 10.60742188 6.80617187 10.80078125 6 11 C5.67 8.03 5.34 5.06 5 2 C3.68 2.33 2.36 2.66 1 3 C0.67 2.01 0.34 1.02 0 0 Z " fill="#080807" transform="translate(220,91)"/>
<path d="M0 0 C12.10622957 3.00509245 21.03305594 11.32854633 27.5 21.8125 C29 25 29 25 28 28 C25.86241362 24.8699628 23.87865741 21.79744865 22.125 18.4375 C20.05595411 14.69666502 17.31962236 12.6406087 14 10 C14 9.34 14 8.68 14 8 C13.01 8 12.02 8 11 8 C11 7.34 11 6.68 11 6 C9.948125 5.5978125 9.948125 5.5978125 8.875 5.1875 C5.8350176 3.9318551 2.9272226 2.49764877 0 1 C0 0.67 0 0.34 0 0 Z " fill="#090F24" transform="translate(528,71)"/>
<path d="M0 0 C2 1 2 1 2.86254883 3.25683594 C4.93284316 11.13985488 5.22801886 18.14700046 4.6875 26.25 C4.62626953 27.38824219 4.56503906 28.52648437 4.50195312 29.69921875 C4.35074489 32.46749255 4.18324368 35.23369439 4 38 C3.67 38 3.34 38 3 38 C2.67 27.77 2.34 17.54 2 7 C1.34 7 0.68 7 0 7 C0 4.69 0 2.38 0 0 Z " fill="#000524" transform="translate(557,100)"/>
<path d="M0 0 C2 1 2 1 2.61230469 2.70068359 C3.44219349 7.62253038 3.22767604 12.64675601 3.25 17.625 C3.270625 18.78257812 3.29125 19.94015625 3.3125 21.1328125 C3.31765625 22.23625 3.3228125 23.3396875 3.328125 24.4765625 C3.3374707 25.48799316 3.34681641 26.49942383 3.35644531 27.54150391 C3.23881836 28.35280762 3.12119141 29.16411133 3 30 C2.01 30.66 1.02 31.32 0 32 C0.0721875 31.32195312 0.144375 30.64390625 0.21875 29.9453125 C1.23107148 19.79397765 1.07967359 10.14121975 0 0 Z " fill="#1F0801" transform="translate(546,111)"/>
<path d="M0 0 C2 1 2 1 3.10546875 3.5703125 C4.10144888 7.38896121 4.3421835 10.9567775 4.3125 14.875 C4.31121094 15.57882813 4.30992187 16.28265625 4.30859375 17.0078125 C4.21007811 22.32765727 3.3635847 26.2728306 1 31 C0.67 31 0.34 31 0 31 C0 28.69 0 26.38 0 24 C0.66 24 1.32 24 2 24 C2.2144997 15.72984476 2.07422976 8.03764031 0 0 Z " fill="#0F2042" transform="translate(334,139)"/>
<path d="M0 0 C3.32016133 1.42025412 6.62956795 2.86401652 9.9375 4.3125 C10.88302734 4.71662109 11.82855469 5.12074219 12.80273438 5.53710938 C13.70185547 5.93349609 14.60097656 6.32988281 15.52734375 6.73828125 C16.35999756 7.09962158 17.19265137 7.46096191 18.05053711 7.83325195 C20 9 20 9 21 12 C15.90117545 10.4719611 11.34334341 8.28963144 6.625 5.875 C5.88894531 5.50246094 5.15289062 5.12992188 4.39453125 4.74609375 C2.59449642 3.8343878 0.79698598 2.91770068 -1 2 C-0.67 1.34 -0.34 0.68 0 0 Z " fill="#131313" transform="translate(197,185)"/>
<path d="M0 0 C0.99 0.33 1.98 0.66 3 1 C3 1.66 3 2.32 3 3 C3.66 3 4.32 3 5 3 C8.22265625 8.17578125 8.22265625 8.17578125 9 10 C8.67 10.99 8.34 11.98 8 13 C8 12.34 8 11.68 8 11 C7.38125 10.731875 6.7625 10.46375 6.125 10.1875 C4 9 4 9 2 6 C2 4.68 2 3.36 2 2 C1.34 2 0.68 2 0 2 C0 1.34 0 0.68 0 0 Z " fill="#090D27" transform="translate(429,76)"/>
<path d="M0 0 C2.31 0 4.62 0 7 0 C7.33 0.66 7.66 1.32 8 2 C6.02 2 4.04 2 2 2 C2 4.97 2 7.94 2 11 C0 9 0 9 -0.1953125 6.8359375 C-0.17210937 6.02382813 -0.14890625 5.21171875 -0.125 4.375 C-0.10695312 3.55773437 -0.08890625 2.74046875 -0.0703125 1.8984375 C-0.04710937 1.27195312 -0.02390625 0.64546875 0 0 Z " fill="#2B2B2B" transform="translate(64,325)"/>
<path d="M0 0 C3.85025879 0.60355408 6.86101159 1.76772603 10.3125 3.5625 C11.19550781 4.01753906 12.07851562 4.47257813 12.98828125 4.94140625 C13.65214844 5.29074219 14.31601563 5.64007813 15 6 C15 6.66 15 7.32 15 8 C10.10668277 6.53200483 5.36956975 4.66971326 1 2 C0.67 1.34 0.34 0.68 0 0 Z " fill="#121212" transform="translate(159,168)"/>
<path d="M0 0 C3.55780196 0.60990891 6.6828589 1.5783681 10 3 C8.625 5 8.625 5 7 7 C6.34 7 5.68 7 5 7 C0 1.4047619 0 1.4047619 0 0 Z " fill="#080706" transform="translate(168,72)"/>
<path d="M0 0 C1.21816406 0.03480469 1.21816406 0.03480469 2.4609375 0.0703125 C3.68683594 0.09738281 3.68683594 0.09738281 4.9375 0.125 C5.87722656 0.15980469 5.87722656 0.15980469 6.8359375 0.1953125 C6.8359375 1.8453125 6.8359375 3.4953125 6.8359375 5.1953125 C6.1759375 5.1953125 5.5159375 5.1953125 4.8359375 5.1953125 C4.8359375 4.2053125 4.8359375 3.2153125 4.8359375 2.1953125 C1.8659375 2.1953125 -1.1040625 2.1953125 -4.1640625 2.1953125 C-2.1640625 0.1953125 -2.1640625 0.1953125 0 0 Z " fill="#121212" transform="translate(232.1640625,324.8046875)"/>
<path d="M0 0 C2 1 2 1 3.125 4.1875 C3.91680237 7.63749602 4.1714979 10.484293 4 14 C3.67 14 3.34 14 3 14 C2.67 11.69 2.34 9.38 2 7 C1.34 7 0.68 7 0 7 C0 4.69 0 2.38 0 0 Z " fill="#0E1831" transform="translate(557,100)"/>
<path d="M0 0 C1.125 1.6875 1.125 1.6875 2 4 C0.99447666 8.02209334 -0.95620945 10.2605885 -4 13 C-3.79503906 12.39671875 -3.59007812 11.7934375 -3.37890625 11.171875 C-2.97478516 9.97304687 -2.97478516 9.97304687 -2.5625 8.75 C-2.29566406 7.96109375 -2.02882813 7.1721875 -1.75390625 6.359375 C-1.08045292 4.25178012 -0.50849405 2.15246027 0 0 Z " fill="#190300" transform="translate(545,144)"/>
<path d="M0 0 C1 3 1 3 0.00390625 5.48046875 C-0.47175781 6.37378906 -0.94742187 7.26710938 -1.4375 8.1875 C-1.91058594 9.08855469 -2.38367188 9.98960938 -2.87109375 10.91796875 C-3.24363281 11.60503906 -3.61617188 12.29210937 -4 13 C-5 10 -5 10 -4.00390625 7.51953125 C-3.52824219 6.62621094 -3.05257813 5.73289062 -2.5625 4.8125 C-2.08941406 3.91144531 -1.61632812 3.01039062 -1.12890625 2.08203125 C-0.75636719 1.39496094 -0.38382812 0.70789063 0 0 Z " fill="#010319" transform="translate(437,112)"/>
<path d="M0 0 C0.66 0.33 1.32 0.66 2 1 C-0.31 3.64 -2.62 6.28 -5 9 C-5.66 8.67 -6.32 8.34 -7 8 C-5.6875 5.5 -5.6875 5.5 -4 3 C-3.01 3 -2.02 3 -1 3 C-0.67 2.01 -0.34 1.02 0 0 Z " fill="#080F28" transform="translate(434,122)"/>
<path d="M0 0 C1.98 0 3.96 0 6 0 C4.515 1.98 4.515 1.98 3 4 C1.68 3.67 0.36 3.34 -1 3 C-0.67 2.01 -0.34 1.02 0 0 Z " fill="#040412" transform="translate(310,122)"/>
<path d="M0 0 C-0.66 1.32 -1.32 2.64 -2 4 C-4.31 4 -6.62 4 -9 4 C-8 2 -8 2 -5.0625 0.875 C-2 0 -2 0 0 0 Z " fill="#18100E" transform="translate(414,124)"/>
</svg>
