<?xml version="1.0" encoding="UTF-8"?>
<svg version="1.1" xmlns="http://www.w3.org/2000/svg" width="425" height="389">
<path d="M0 0 C1.16309189 -0.01283524 2.32618378 -0.02567047 3.52452087 -0.03889465 C4.79719315 -0.04628159 6.06986542 -0.05366852 7.38110352 -0.0612793 C8.69095718 -0.06935104 10.00081085 -0.07742279 11.35035706 -0.08573914 C14.14063387 -0.10080542 16.93088499 -0.11061611 19.72119141 -0.11816406 C22.55019331 -0.12692582 25.37868813 -0.14755108 28.20751953 -0.1796875 C54.39618444 -0.47090281 79.61866208 0.89100674 99.82250977 19.92700195 C116.61476824 37.74946033 120.48912684 60.45500268 119.89282227 84.0090332 C119.00000426 105.09302679 111.96167569 124.3694738 96.57250977 139.17700195 C80.02577684 153.17431232 60.3972189 157.3446555 39.23657227 157.30981445 C37.96147797 157.31077118 36.68638367 157.31172791 35.37265015 157.31271362 C32.68809564 157.31339227 30.00363308 157.31206612 27.3190918 157.30737305 C23.87228078 157.30164167 20.42554705 157.3049824 16.97873878 157.31094551 C13.68968043 157.31541345 10.40063162 157.31229345 7.11157227 157.30981445 C5.87001373 157.31183868 4.6284552 157.31386292 3.34927368 157.31594849 C2.21073944 157.31279633 1.0722052 157.30964417 -0.10083008 157.30639648 C-1.1078598 157.30560089 -2.11488953 157.3048053 -3.1524353 157.3039856 C-5.42749023 157.17700195 -5.42749023 157.17700195 -6.42749023 156.17700195 C-6.52640751 154.17969362 -6.55381297 152.17883332 -6.55447388 150.17907715 C-6.5572937 148.87495377 -6.56011353 147.57083038 -6.5630188 146.22718811 C-6.5610742 144.76840196 -6.55902601 143.30961595 -6.55688477 141.85083008 C-6.55823874 140.32523049 -6.56001866 138.79963123 -6.56219482 137.27403259 C-6.56676958 133.11919039 -6.56497943 128.96437291 -6.56181574 124.80953026 C-6.55929235 120.47112331 -6.56162961 116.13271855 -6.5632019 111.79431152 C-6.56502366 104.50732033 -6.56261713 97.22033926 -6.55786133 89.93334961 C-6.5524187 81.49628339 -6.55418135 73.05924133 -6.55968773 64.62217569 C-6.56421868 57.39162441 -6.5648695 50.16108041 -6.56224906 42.93052816 C-6.56068619 38.60619301 -6.56049281 34.28186923 -6.56378555 29.95753479 C-6.56666401 25.89302496 -6.56468905 21.82854643 -6.5588913 17.76403999 C-6.55756356 16.26800654 -6.55795805 14.77197047 -6.56015396 13.27593803 C-6.5628649 11.24226853 -6.55887115 9.20859331 -6.55447388 7.17492676 C-6.55409685 6.03412407 -6.55371983 4.89332138 -6.55333138 3.71794891 C-6.32533716 -0.88564254 -4.08379088 0.03913921 0 0 Z M13.57250977 17.17700195 C12.23321091 58.52785421 12.18840064 99.82674183 13.57250977 141.17700195 C18.60429701 141.10730321 23.63531699 141.01895995 28.66650391 140.91455078 C30.37214522 140.88163574 32.07788674 140.85350409 33.78369141 140.83056641 C51.34005826 140.58823183 69.65194507 138.6849214 83.06079102 125.8840332 C95.390703 111.96110934 100.5181492 93.5675957 99.85766602 75.1027832 C98.14279035 57.50768909 94.87792488 41.19490489 81.06860352 28.95825195 C69.94240154 20.27754706 58.11334457 16.99448387 44.23657227 17.0793457 C42.9175441 17.08146812 42.9175441 17.08146812 41.5718689 17.08363342 C38.78038034 17.08920318 35.98897382 17.10175005 33.19750977 17.11450195 C31.29777135 17.11952086 29.39803166 17.12408309 27.49829102 17.12817383 C22.85633262 17.1391627 18.21443507 17.15640638 13.57250977 17.17700195 Z " fill="#070405" transform="translate(268.427490234375,36.822998046875)"/>
<path d="M0 0 C8.99687825 0 8.99687825 0 11.96484375 1.20703125 C12.939375 1.58988281 12.939375 1.58988281 13.93359375 1.98046875 C14.59488281 2.25503906 15.25617188 2.52960938 15.9375 2.8125 C17.35240986 3.37224456 18.76777089 3.93085007 20.18359375 4.48828125 C20.84987793 4.75463379 21.51616211 5.02098633 22.20263672 5.29541016 C24.27911406 6.10941635 26.37470417 6.82432791 28.5 7.5 C32.59330309 8.82293066 36.60485434 10.34736366 40.625 11.875 C46.00446958 13.9177565 51.40512748 15.83849158 56.875 17.625 C61.80699454 19.24492289 66.63898793 20.97535989 71.4375 22.953125 C76.58955987 25.05792995 81.80197329 27.01203994 87 29 C85.68509543 31.62980913 84.69759824 31.65942242 81.95629883 32.61303711 C81.09123215 32.91809677 80.22616547 33.22315643 79.33488464 33.53746033 C78.38519302 33.86412186 77.4355014 34.19078339 76.45703125 34.52734375 C75.47297806 34.87249527 74.48892487 35.21764679 73.47505188 35.57325745 C71.35712726 36.31532881 69.23805604 37.05413402 67.11798096 37.79003906 C61.61930514 39.6988432 56.12868444 41.63058817 50.63671875 43.55859375 C49.54939453 43.93950165 48.46207031 44.32040955 47.34179688 44.71286011 C38.24281172 47.90342784 29.17377434 51.16996634 20.125 54.5 C18.89885986 54.94980225 17.67271973 55.39960449 16.40942383 55.86303711 C11.12394214 57.74125522 11.12394214 57.74125522 6 60 C6 72.21 6 84.42 6 97 C19.77877541 104.43616451 33.76314983 111.14940962 48.01074219 117.63525391 C59.44511012 122.85561627 70.8573147 128.17809432 82 134 C82.95390625 134.41636719 83.9078125 134.83273438 84.890625 135.26171875 C85.58671875 135.83535156 86.2828125 136.40898437 87 137 C87 139.31 87 141.62 87 144 C29.91 144 -27.18 144 -86 144 C-86 141.36 -86 138.72 -86 136 C-85.09918701 135.58314941 -84.19837402 135.16629883 -83.27026367 134.73681641 C-74.58807437 130.70833458 -65.96232059 126.575432 -57.36203003 122.37536621 C-44.63323115 116.16249783 -31.8521691 110.07966969 -18.98364258 104.16162109 C-14.40121661 102.05303477 -9.83723718 99.94132117 -5.34765625 97.640625 C-2 96 -2 96 0 96 C0 64.32 0 32.64 0 0 Z " fill="#000000" transform="translate(154,65)"/>
<path d="M0 0 C51.15 0 102.3 0 155 0 C155 3.3 155 6.6 155 10 C157.1965625 9.9690625 157.1965625 9.9690625 159.4375 9.9375 C160.95832518 9.91607993 162.48071962 9.92820036 164 10 C165 11 165 11 165.09765625 13.28515625 C165.08025391 14.65994141 165.08025391 14.65994141 165.0625 16.0625 C165.05347656 16.98160156 165.04445312 17.90070313 165.03515625 18.84765625 C165.01775391 19.91306641 165.01775391 19.91306641 165 21 C167.64 21 170.28 21 173 21 C173 24.96 173 28.92 173 33 C109.64 33 46.28 33 -19 33 C-19 22 -19 22 -18 21 C-15.32941149 20.85884839 -12.67567762 20.95752893 -10 21 C-10 17.37 -10 13.74 -10 10 C-6.7 10 -3.4 10 0 10 C0 6.7 0 3.4 0 0 Z " fill="#000000" transform="translate(77,312)"/>
<path d="M0 0 C8.99687825 0 8.99687825 0 11.96484375 1.20703125 C12.939375 1.58988281 12.939375 1.58988281 13.93359375 1.98046875 C14.59488281 2.25503906 15.25617188 2.52960938 15.9375 2.8125 C17.35240986 3.37224456 18.76777089 3.93085007 20.18359375 4.48828125 C20.84987793 4.75463379 21.51616211 5.02098633 22.20263672 5.29541016 C24.27911406 6.10941635 26.37470417 6.82432791 28.5 7.5 C32.59330309 8.82293066 36.60485434 10.34736366 40.625 11.875 C46.00446958 13.9177565 51.40512748 15.83849158 56.875 17.625 C61.80699454 19.24492289 66.63898793 20.97535989 71.4375 22.953125 C76.58955987 25.05792995 81.80197329 27.01203994 87 29 C85.68509543 31.62980913 84.69759824 31.65942242 81.95629883 32.61303711 C81.09123215 32.91809677 80.22616547 33.22315643 79.33488464 33.53746033 C78.38519302 33.86412186 77.4355014 34.19078339 76.45703125 34.52734375 C75.47297806 34.87249527 74.48892487 35.21764679 73.47505188 35.57325745 C71.35712726 36.31532881 69.23805604 37.05413402 67.11798096 37.79003906 C61.61930514 39.6988432 56.12868444 41.63058817 50.63671875 43.55859375 C49.54939453 43.93950165 48.46207031 44.32040955 47.34179688 44.71286011 C38.24281172 47.90342784 29.17377434 51.16996634 20.125 54.5 C18.89885986 54.94980225 17.67271973 55.39960449 16.40942383 55.86303711 C11.12394214 57.74125522 11.12394214 57.74125522 6 60 C6.00785522 61.64983887 6.00785522 61.64983887 6.01586914 63.33300781 C6.03398464 67.41812322 6.04545599 71.50323507 6.05493164 75.58837891 C6.05995687 77.35563759 6.06677809 79.12289212 6.07543945 80.89013672 C6.08758428 83.43197657 6.09324645 85.9737614 6.09765625 88.515625 C6.10281754 89.30430969 6.10797882 90.09299438 6.11329651 90.90557861 C6.11365887 94.45800922 5.8987412 97.5783623 5 101 C4.85492152 102.87756738 4.75366301 104.75876493 4.68359375 106.640625 C4.64169922 107.71054688 4.59980469 108.78046875 4.55664062 109.8828125 C4.51732422 110.99398437 4.47800781 112.10515625 4.4375 113.25 C4.39431641 114.37664062 4.35113281 115.50328125 4.30664062 116.6640625 C4.20067985 119.44258954 4.09860858 122.22120391 4 125 C2.68 124.67 1.36 124.34 0 124 C0 116.08 0 108.16 0 100 C-0.66 99.67 -1.32 99.34 -2 99 C-4.03692527 99.89983488 -6.03247339 100.8946163 -8 101.9375 C-13.80410023 105 -13.80410023 105 -16 105 C-16.495 105.99 -16.495 105.99 -17 107 C-17.99 107 -18.98 107 -20 107 C-20 106.34 -20 105.68 -20 105 C-17.04492094 103.49352402 -14.08542659 101.99593635 -11.125 100.5 C-9.86236328 99.85611328 -9.86236328 99.85611328 -8.57421875 99.19921875 C-7.76855469 98.79316406 -6.96289062 98.38710937 -6.1328125 97.96875 C-5.38918457 97.59169922 -4.64555664 97.21464844 -3.87939453 96.82617188 C-2 96 -2 96 0 96 C0 64.32 0 32.64 0 0 Z " fill="#0E0D0C" transform="translate(154,65)"/>
<path d="M0 0 C5.61 0 11.22 0 17 0 C18.00445118 9.48893627 18.30340478 18.94986065 18.53515625 28.48046875 C18.57825693 30.14627373 18.62167358 31.81207056 18.66539001 33.4778595 C18.77866388 37.82598415 18.88769328 42.17420487 18.99578857 46.52246094 C19.10722042 50.97402537 19.22273589 55.42548372 19.33789062 59.87695312 C19.56255288 68.58453763 19.78272373 77.29222808 20 86 C15.32913228 86.83197378 10.93840304 87.13432464 6.1875 87.125 C5.50751953 87.12886719 4.82753906 87.13273437 4.12695312 87.13671875 C-0.87325175 87.12674825 -0.87325175 87.12674825 -2 86 C-2.10121085 84.30061261 -2.13082852 82.59692874 -2.1328125 80.89453125 C-2.13482666 79.7844873 -2.13684082 78.67444336 -2.13891602 77.53076172 C-2.13432373 76.30373535 -2.12973145 75.07670898 -2.125 73.8125 C-2.12234131 72.53906738 -2.11968262 71.26563477 -2.11694336 69.95361328 C-2.02728075 46.63284691 -1.42931956 23.27748999 0 0 Z " fill="#010101" transform="translate(91,224)"/>
<path d="M0 0 C1.12535156 0.00580078 1.12535156 0.00580078 2.2734375 0.01171875 C3.02367187 0.00785156 3.77390625 0.00398437 4.546875 0 C10.14682697 0.01010822 10.14682697 0.01010822 11.2734375 1.13671875 C11.42684493 3.09007722 11.51194158 5.048828 11.57055664 7.00732422 C11.6305056 8.89727615 11.6305056 8.89727615 11.69166565 10.82540894 C11.73082396 12.21823626 11.76979483 13.61106887 11.80859375 15.00390625 C11.85166439 16.43670665 11.8950811 17.86949668 11.93882751 19.30227661 C12.03003558 22.32367038 12.11792872 25.34513696 12.20336914 28.36669922 C12.31139596 32.18257902 12.42602248 35.99822222 12.54293251 39.81383896 C13.01424351 55.2554219 13.44567941 70.68598157 13.2734375 86.13671875 C9.1565743 87.0227374 5.36806817 87.27067763 1.1484375 87.26171875 C-0.07101563 87.26429688 -1.29046875 87.266875 -2.546875 87.26953125 C-5.7265625 87.13671875 -5.7265625 87.13671875 -8.7265625 86.13671875 C-8.78218968 75.54739237 -8.62187751 64.97916652 -8.32421875 54.39453125 C-8.28173176 52.84894932 -8.23928774 51.3033662 -8.19688416 49.75778198 C-8.10845504 46.55608709 -8.01826214 43.3544474 -7.92700195 40.15283203 C-7.81017438 36.04276599 -7.69985132 31.93255142 -7.59099674 27.82226753 C-7.50590579 24.64816847 -7.41647898 21.47420263 -7.32580376 18.30025864 C-7.28316484 16.78277801 -7.24211866 15.26525177 -7.2026844 13.74768448 C-7.14757872 11.64429323 -7.08642293 9.54116363 -7.02368164 7.43798828 C-6.99037247 6.24190948 -6.95706329 5.04583069 -6.92274475 3.81350708 C-6.56817569 -1.02437358 -4.3326436 0.00782066 0 0 Z " fill="#000000" transform="translate(206.7265625,223.86328125)"/>
<path d="M0 0 C5.61 0 11.22 0 17 0 C17.73171359 4.39028156 18.1683621 8.22739804 18.29711914 12.62524414 C18.3570681 14.57370995 18.3570681 14.57370995 18.41822815 16.5615387 C18.45734603 17.96940728 18.49631833 19.37727992 18.53515625 20.78515625 C18.57826415 22.24760317 18.62168077 23.71004102 18.66539001 25.17247009 C18.75610453 28.23625061 18.8440848 31.30009297 18.92993164 34.36401367 C19.03902033 38.25480975 19.15331156 42.14542974 19.26950932 46.03601933 C19.35945459 49.05864489 19.44734397 52.08132749 19.53457451 55.10403252 C19.57599786 56.53629256 19.61785046 57.96854026 19.66017342 59.400774 C19.9201757 68.26890519 20.05477244 77.1276335 20 86 C16.89626831 86.19556982 13.79208383 86.38093228 10.6875 86.5625 C9.36588867 86.64661133 9.36588867 86.64661133 8.01757812 86.73242188 C6.74624023 86.80493164 6.74624023 86.80493164 5.44921875 86.87890625 C4.27879028 86.94960327 4.27879028 86.94960327 3.0847168 87.02172852 C1 87 1 87 -2 86 C-2.17067355 67.85215015 -1.70335676 49.74468115 -1.07287598 31.61120605 C-0.94925642 28.02996621 -0.83033097 24.44857028 -0.7109375 20.8671875 C-0.47839143 13.91130334 -0.24046627 6.95561483 0 0 Z " fill="#010101" transform="translate(127,224)"/>
<path d="M0 0 C1.12535156 0.00580078 1.12535156 0.00580078 2.2734375 0.01171875 C3.02367187 0.00785156 3.77390625 0.00398437 4.546875 0 C10.14682697 0.01010822 10.14682697 0.01010822 11.2734375 1.13671875 C12.75496016 13.48030216 12.56182796 26.0857421 12.77612305 38.49633789 C12.83563732 41.93189051 12.9007639 45.36730149 12.96679688 48.80273438 C13.19860003 61.24979011 13.31966791 73.68752996 13.2734375 86.13671875 C6.3434375 86.13671875 -0.5865625 86.13671875 -7.7265625 86.13671875 C-7.90363378 39.80306617 -7.90363378 39.80306617 -7.2890625 16.69921875 C-7.26941437 15.90359528 -7.24976624 15.1079718 -7.22952271 14.28823853 C-7.17330315 12.0721475 -7.10982206 9.85641786 -7.04296875 7.640625 C-7.00631104 6.40127197 -6.96965332 5.16191895 -6.93188477 3.88500977 C-6.56591663 -1.01356733 -4.40879348 0.00795811 0 0 Z " fill="#000000" transform="translate(169.7265625,223.86328125)"/>
<path d="M0 0 C46.2 0 92.4 0 140 0 C140 3.63 140 7.26 140 11 C139 12 139 12 136.70613766 12.12304783 C135.68202565 12.12212604 134.65791365 12.12120424 133.60276794 12.12025452 C131.84635483 12.12231651 131.84635483 12.12231651 130.05445862 12.12442017 C128.75830124 12.12082489 127.46214386 12.11722961 126.12670898 12.11352539 C124.75712079 12.11324352 123.38753244 12.11340125 122.01794434 12.1139679 C118.28877052 12.11425588 114.55962859 12.10835909 110.83046222 12.10139394 C106.93735587 12.09516047 103.04424887 12.09455661 99.15113831 12.09336853 C91.77401854 12.09025519 84.39691351 12.08204178 77.01980025 12.07201904 C68.62332457 12.06085797 60.22684821 12.05534747 51.83036697 12.05032361 C34.5535692 12.03985916 17.27678672 12.02205924 0 12 C0 8.04 0 4.08 0 0 Z " fill="#000000" transform="translate(84,211)"/>
<path d="M0 0 C5.08124718 5.08124718 4.25745005 14.79644474 4.2734375 21.53515625 C4.26570313 22.63730469 4.25796875 23.73945312 4.25 24.875 C4.25773437 25.96941406 4.26546875 27.06382813 4.2734375 28.19140625 C4.22709075 47.77290925 4.22709075 47.77290925 0 52 C-0.0270043 50.54176788 -0.04639787 49.08339325 -0.0625 47.625 C-0.07410156 46.81289062 -0.08570313 46.00078125 -0.09765625 45.1640625 C0 43 0 43 1 41 C1.09798085 38.79339723 1.1307781 36.5837761 1.1328125 34.375 C1.13376923 33.71346924 1.13472595 33.05193848 1.13571167 32.37036133 C1.13639304 30.96484279 1.13454175 29.55932111 1.13037109 28.15380859 C1.12508992 26.03605749 1.13028184 23.91852514 1.13671875 21.80078125 C1.13995677 14.480265 0.95829424 7.26469984 0 0 Z " fill="#09113A" transform="translate(384,89)"/>
<path d="M0 0 C0.33 0.66 0.66 1.32 1 2 C-2.59540655 9.23956437 -7.67930725 15.92891547 -14 21 C-14.66 21 -15.32 21 -16 21 C-15.42676569 17.13066838 -13.61046448 14.84777943 -11 12 C-10.34 12 -9.68 12 -9 12 C-8.8453125 11.1028125 -8.8453125 11.1028125 -8.6875 10.1875 C-7.89496146 7.66578648 -7.08408591 6.60314301 -5 5 C-4.01 5 -3.02 5 -2 5 C-1.34 3.35 -0.68 1.7 0 0 Z " fill="#070A23" transform="translate(378,156)"/>
<path d="M0 0 C11.19986322 1.17985981 11.19986322 1.17985981 14.5 4.5625 C14.995 5.366875 15.49 6.17125 16 7 C18.12946603 7.86965506 18.12946603 7.86965506 20 8 C20 8.66 20 9.32 20 10 C20.61875 10.28875 21.2375 10.5775 21.875 10.875 C24 12 24 12 26 14 C25.67 14.99 25.34 15.98 25 17 C23.67548828 15.89591797 23.67548828 15.89591797 22.32421875 14.76953125 C15.26689632 8.99437132 8.65234097 4.19606881 0 1 C0 0.67 0 0.34 0 0 Z " fill="#2E180F" transform="translate(332,56)"/>
<path d="M0 0 C0.33 0 0.66 0 1 0 C1.02925502 3.68748309 1.04688418 7.37493592 1.0625 11.0625 C1.07087891 12.10083984 1.07925781 13.13917969 1.08789062 14.20898438 C1.12187091 24.91277405 1.12187091 24.91277405 0 30 C-0.66 30.33 -1.32 30.66 -2 31 C-2.90725434 33.11327425 -2.90725434 33.11327425 -3.625 35.5625 C-3.88539063 36.38878906 -4.14578125 37.21507812 -4.4140625 38.06640625 C-4.60742188 38.70449219 -4.80078125 39.34257812 -5 40 C-6.28020933 36.159372 -5.48667326 33.22260338 -4.6875 29.375 C-4.55666016 28.68148437 -4.42582031 27.98796875 -4.29101562 27.2734375 C-3.93243616 25.49959511 -3.47317042 23.7467701 -3 22 C-2.34 21.67 -1.68 21.34 -1 21 C-0.67 14.07 -0.34 7.14 0 0 Z " fill="#452114" transform="translate(369,105)"/>
<path d="M0 0 C0.66 1.32 1.32 2.64 2 4 C0.29711802 5.13323463 -1.41258523 6.25622235 -3.125 7.375 C-4.07632812 8.00148437 -5.02765625 8.62796875 -6.0078125 9.2734375 C-8.95981219 10.97681069 -11.73870494 12.04193409 -15 13 C-15 12.34 -15 11.68 -15 11 C-13.35 10.67 -11.7 10.34 -10 10 C-10 9.34 -10 8.68 -10 8 C-8.06640625 6.30859375 -8.06640625 6.30859375 -5.5625 4.4375 C-2.67307373 2.34532911 -2.67307373 2.34532911 0 0 Z " fill="#040511" transform="translate(361,174)"/>
<path d="M0 0 C1 2 1 2 0.58203125 3.83984375 C-2.07989123 11.09594717 -2.07989123 11.09594717 -6 13 C-9.25 13.6875 -9.25 13.6875 -12 14 C-11.319375 13.360625 -10.63875 12.72125 -9.9375 12.0625 C-6.22657527 8.37290243 -3.1498651 4.16653626 0 0 Z " fill="#3C2115" transform="translate(358,153)"/>
<path d="M0 0 C-2.53682516 1.322644 -5.07877651 2.63317361 -7.625 3.9375 C-8.33785156 4.31068359 -9.05070312 4.68386719 -9.78515625 5.06835938 C-13.86918102 7.14783988 -17.3702221 8.53994321 -22 9 C-19.22841303 5.61134272 -15.4407621 4.05712884 -11.5625 2.25 C-10.55993164 1.75693359 -10.55993164 1.75693359 -9.53710938 1.25390625 C-5.87858803 -0.46476483 -3.84628992 -1.26184096 0 0 Z " fill="#101010" transform="translate(110,184)"/>
<path d="M0 0 C3.87871804 3.54115043 6.19655678 6.79093528 8.375 11.5625 C8.89835937 12.67753906 9.42171875 13.79257813 9.9609375 14.94140625 C10.98787675 17.96431389 11.20043308 19.11189922 10 22 C9.67 20.02 9.34 18.04 9 16 C8.01 15.67 7.02 15.34 6 15 C4.90234375 12.890625 4.90234375 12.890625 3.9375 10.25 C3.61652344 9.38890625 3.29554688 8.5278125 2.96484375 7.640625 C2.48724609 6.33351563 2.48724609 6.33351563 2 5 C1.33850262 3.33127491 0.67336916 1.66397001 0 0 Z " fill="#0C0E2B" transform="translate(372,63)"/>
<path d="M0 0 C7.57774471 2.70824327 13.55080679 8.19924594 19 14 C18.67 14.66 18.34 15.32 18 16 C17.22076172 15.16855469 17.22076172 15.16855469 16.42578125 14.3203125 C15.72839844 13.59585938 15.03101563 12.87140625 14.3125 12.125 C13.62800781 11.40570313 12.94351562 10.68640625 12.23828125 9.9453125 C9.88550664 7.90049268 7.87539257 7.12028282 5 6 C3.05814978 4.14924892 1.63418093 2.14778065 0 0 Z " fill="#0A0C20" transform="translate(353,47)"/>
<path d="M0 0 C4.25909176 0.65647655 7.83478109 2.09454977 11.75 3.875 C12.89984375 4.38804687 14.0496875 4.90109375 15.234375 5.4296875 C18 7 18 7 19 10 C14.69310762 8.65692112 10.72476571 7.01109126 6.6875 5 C5.63949219 4.484375 4.59148437 3.96875 3.51171875 3.4375 C1 2 1 2 0 0 Z " fill="#111111" transform="translate(202,184)"/>
<path d="M0 0 C6.02770138 0.47587116 10.76678289 3.19722957 16 6 C15.34 6.66 14.68 7.32 14 8 C9.38 5.69 4.76 3.38 0 1 C0 0.67 0 0.34 0 0 Z " fill="#0B0B0B" transform="translate(163,166)"/>
<path d="M0 0 C2.31 0 4.62 0 7 0 C7 0.66 7 1.32 7 2 C5.35 2 3.7 2 2 2 C2 3.98 2 5.96 2 8 C0 6 0 6 -0.125 2.875 C-0.08375 1.92625 -0.0425 0.9775 0 0 Z " fill="#141414" transform="translate(67,322)"/>
<path d="M0 0 C1.98 0 3.96 0 6 0 C6.33 1.32 6.66 2.64 7 4 C6.34 4 5.68 4 5 4 C5 3.34 5 2.68 5 2 C3.35 2 1.7 2 0 2 C0 1.34 0 0.68 0 0 Z " fill="#0D0D0D" transform="translate(235,322)"/>
<path d="M0 0 C0.99 0.33 1.98 0.66 3 1 C3 3.31 3 5.62 3 8 C2.34 8 1.68 8 1 8 C0.67 5.36 0.34 2.72 0 0 Z " fill="#320F01" transform="translate(366,127)"/>
</svg>
