<?xml version="1.0" encoding="UTF-8"?>
<svg version="1.1" xmlns="http://www.w3.org/2000/svg" width="429" height="338">
<path d="M0 0 C3.30529333 2.68521542 6.46757325 5.51188249 9.59375 8.40234375 C10.10534668 8.8701123 10.61694336 9.33788086 11.14404297 9.81982422 C33.48198646 30.45744851 47.60465999 58.30284641 51.59375 88.40234375 C51.76430908 89.34432617 51.93486816 90.28630859 52.1105957 91.25683594 C54.47538448 106.65245928 53.22777353 123.3047696 49.59375 138.40234375 C49.3769458 139.36720703 49.3769458 139.36720703 49.15576172 140.3515625 C47.06207375 149.64447652 43.85705288 157.90755367 39.59375 166.40234375 C39.09617187 167.44519531 38.59859375 168.48804688 38.0859375 169.5625 C32.02031727 182.12246231 32.02031727 182.12246231 27.59375 187.40234375 C26.93375 187.40234375 26.27375 187.40234375 25.59375 187.40234375 C25.3875 188.08296875 25.18125 188.76359375 24.96875 189.46484375 C23.16479973 193.3187375 20.6927155 196.48022139 17.59375 199.40234375 C16.93375 199.40234375 16.27375 199.40234375 15.59375 199.40234375 C15.325625 200.04171875 15.0575 200.68109375 14.78125 201.33984375 C13.59375 203.40234375 13.59375 203.40234375 10.59375 204.40234375 C10.26375 205.39234375 9.93375 206.38234375 9.59375 207.40234375 C7.46389581 209.26596617 5.33840073 211.00095939 3.09375 212.71484375 C2.5059375 213.17568359 1.918125 213.63652344 1.3125 214.11132812 C-14.31882472 226.22223596 -32.09293308 235.00736986 -51.40625 239.40234375 C-52.09154785 239.5631543 -52.7768457 239.72396484 -53.48291016 239.88964844 C-74.10341407 244.5423325 -94.99061472 243.37202676 -115.40625 238.40234375 C-116.66566406 238.11359375 -117.92507812 237.82484375 -119.22265625 237.52734375 C-151.47056709 229.30944611 -178.56582499 206.90047916 -196.40625 179.40234375 C-196.93734375 178.63019531 -197.4684375 177.85804688 -198.015625 177.0625 C-209.51040265 159.48043418 -216.06427857 136.28702779 -216.40625 115.40234375 C-216.44492188 114.22800781 -216.48359375 113.05367187 -216.5234375 111.84375 C-217.16270174 78.28237757 -206.54303358 47.41973455 -185.40625 21.40234375 C-184.58060547 20.23251953 -184.58060547 20.23251953 -183.73828125 19.0390625 C-183.29871094 18.49894531 -182.85914063 17.95882812 -182.40625 17.40234375 C-181.74625 17.40234375 -181.08625 17.40234375 -180.40625 17.40234375 C-180.15875 16.82484375 -179.91125 16.24734375 -179.65625 15.65234375 C-178.22325012 13.07294396 -176.62200324 11.34112783 -174.40625 9.40234375 C-173.74625 9.40234375 -173.08625 9.40234375 -172.40625 9.40234375 C-172.40625 8.74234375 -172.40625 8.08234375 -172.40625 7.40234375 C-170.50453812 5.74854979 -168.60654255 4.22324525 -166.59375 2.71484375 C-165.99989502 2.26641113 -165.40604004 1.81797852 -164.79418945 1.35595703 C-145.53917369 -13.02929347 -125.15444803 -21.8425993 -101.40625 -25.59765625 C-99.82263672 -25.87609375 -99.82263672 -25.87609375 -98.20703125 -26.16015625 C-63.9833792 -30.09956944 -27.3962235 -21.41323154 0 0 Z M-122.34375 -13.91015625 C-123.08971436 -13.65596924 -123.83567871 -13.40178223 -124.60424805 -13.13989258 C-143.09910238 -6.6087322 -158.35456327 3.83659432 -172.40625 17.40234375 C-173.13585937 18.08039062 -173.86546875 18.7584375 -174.6171875 19.45703125 C-183.68618588 28.09587951 -190.42860872 38.46686876 -196.40625 49.40234375 C-196.78394531 50.06363281 -197.16164063 50.72492188 -197.55078125 51.40625 C-201.12471983 57.998814 -203.17718549 65.27382536 -205.40625 72.40234375 C-205.70789063 73.33175781 -206.00953125 74.26117188 -206.3203125 75.21875 C-215.44573537 105.40638625 -210.1784155 139.02281488 -196.1953125 166.80859375 C-179.08695119 198.62796637 -150.74501885 221.17870541 -116.48828125 232.01953125 C-94.90446234 238.15514917 -67.84150768 238.2637149 -46.40625 231.40234375 C-45.72546387 231.18803711 -45.04467773 230.97373047 -44.34326172 230.75292969 C-23.21867103 223.89280499 -6.41795403 212.64492663 9.59375 197.40234375 C10.59728516 196.47808594 10.59728516 196.47808594 11.62109375 195.53515625 C16.70180498 190.71942542 20.63995727 185.15687376 24.59375 179.40234375 C25.19316406 178.54769531 25.79257812 177.69304687 26.41015625 176.8125 C44.43856944 149.99170633 50.31635728 115.65034907 44.5625 84.13671875 C40.84295425 65.30843964 32.9806331 49.41909207 22.59375 33.40234375 C21.95953125 32.39429688 21.3253125 31.38625 20.671875 30.34765625 C18.53642262 27.32109404 16.26871262 24.95981168 13.59375 22.40234375 C12.50316854 21.2949479 11.41612737 20.18405803 10.33203125 19.0703125 C9.19016694 17.91009446 8.04823901 16.74993904 6.90625 15.58984375 C6.32552734 14.99236328 5.74480469 14.39488281 5.14648438 13.77929688 C3.66649424 12.28219702 2.13392218 10.83745644 0.59375 9.40234375 C-0.06625 9.40234375 -0.72625 9.40234375 -1.40625 9.40234375 C-1.40625 8.74234375 -1.40625 8.08234375 -1.40625 7.40234375 C-3.53900488 5.75374874 -5.65688921 4.25307965 -7.90625 2.77734375 C-8.92078247 2.1107373 -8.92078247 2.1107373 -9.95581055 1.43066406 C-19.92084355 -4.98683097 -30.24678128 -10.08280807 -41.46875 -13.91015625 C-42.13946533 -14.14057617 -42.81018066 -14.37099609 -43.5012207 -14.60839844 C-55.50359226 -18.47344869 -67.27624372 -20.10297954 -79.81298828 -19.98876953 C-81.90593564 -19.97265867 -83.99695336 -19.98874622 -86.08984375 -20.0078125 C-98.58182333 -20.0281972 -110.49400367 -17.98061459 -122.34375 -13.91015625 Z " fill="#020202" transform="translate(280.40625,43.59765625)"/>
<path d="M0 0 C5.28 0 10.56 0 16 0 C16.01981934 1.32128906 16.03963867 2.64257812 16.06005859 4.00390625 C16.13644518 8.93166339 16.22511068 13.85913793 16.31738281 18.78662109 C16.35553643 20.9144938 16.39041246 23.042428 16.421875 25.17041016 C16.46782232 28.23882955 16.52576688 31.30683047 16.5859375 34.375 C16.59748871 35.31802979 16.60903992 36.26105957 16.62094116 37.23266602 C16.79247674 46.93365645 16.79247674 46.93365645 20.9375 55.4375 C24.91062692 58.44744463 29.19341157 58.50793694 34 58 C37.3085494 56.67658024 38.63534758 55.54778306 40.60473633 52.58935547 C42.5466744 47.59366456 42.47907722 43.01225516 42.51171875 37.6953125 C42.52966995 36.61619598 42.54762115 35.53707947 42.56611633 34.42526245 C42.62012867 30.99188091 42.6540867 27.55863769 42.6875 24.125 C42.720681 21.79164746 42.75517138 19.45831315 42.79101562 17.125 C42.87585032 11.41676659 42.94270534 5.70857358 43 0 C48.28 0 53.56 0 59 0 C59.09914151 7.54390665 59.17159946 15.08743101 59.21972656 22.63183594 C59.23979728 25.1963563 59.26706001 27.76083115 59.30175781 30.32519531 C59.35047355 34.01899471 59.37301513 37.71218709 59.390625 41.40625 C59.41127014 42.5461438 59.43191528 43.6860376 59.45318604 44.86047363 C59.45549982 53.13549483 58.11901974 58.29089544 52.6875 64.75 C42.83066562 73.00223343 32.32610069 72.93639729 20 72 C13.17082927 70.70196149 8.94234514 67.61807442 4.47265625 62.390625 C-0.10562262 54.95851182 -0.41340942 48.37008763 -0.29296875 39.84375 C-0.28872391 38.70087524 -0.28447906 37.55800049 -0.28010559 36.38049316 C-0.26339974 32.75341591 -0.22576156 29.1269075 -0.1875 25.5 C-0.17244275 23.03125806 -0.15875617 20.56250736 -0.14648438 18.09375 C-0.11352257 12.06228298 -0.06179547 6.03123773 0 0 Z " fill="#000000" transform="translate(229,115)"/>
<path d="M0 0 C38.2516129 0 38.2516129 0 45.15625 5.81640625 C45.5996875 6.39261719 46.043125 6.96882813 46.5 7.5625 C46.9640625 8.14128906 47.428125 8.72007813 47.90625 9.31640625 C51.60744563 15.0136038 50.45587377 23.47651052 50 30 C48.46665559 35.95813828 45.09045608 39.57373149 40 43 C32.52621931 46.94072073 25.27201 46.2215717 17 46 C17 54.25 17 62.5 17 71 C11.39 71 5.78 71 0 71 C0 47.57 0 24.14 0 0 Z M17 13 C17 19.6 17 26.2 17 33 C26.3268482 33.92450033 26.3268482 33.92450033 30.5625 30.625 C33.39817066 27.71520308 33.39817066 27.71520308 34.0546875 23.9765625 C33.75736432 20.085507 33.46573626 17.63650622 31.125 14.4375 C26.35257306 12.24218361 22.22202578 12.74833611 17 13 Z " fill="#000000" transform="translate(167,115)"/>
<path d="M0 0 C18.15 0 36.3 0 55 0 C55 4.29 55 8.58 55 13 C48.4 13 41.8 13 35 13 C35 32.14 35 51.28 35 71 C29.72 71 24.44 71 19 71 C19 51.86 19 32.72 19 13 C12.73 13 6.46 13 0 13 C0 8.71 0 4.42 0 0 Z " fill="#000000" transform="translate(103,115)"/>
</svg>
