<?xml version="1.0" encoding="UTF-8"?>
<svg version="1.1" xmlns="http://www.w3.org/2000/svg" width="389" height="333">
<path d="M0 0 C12.42052026 10.7589122 21.65015086 26.65771554 23.5 43.125 C24.89149358 62.99097759 20.51726718 80.13735678 8.25 96.0625 C-2.77245908 108.63263312 -18.98881814 118.13096185 -35.89501953 119.2890625 C-46.06439202 119.74044948 -55.89051274 119.85309539 -65.5 116.125 C-66.33273438 115.8465625 -67.16546875 115.568125 -68.0234375 115.28125 C-84.59840161 109.36526281 -96.66481655 96.46683176 -104.75 81.25 C-112.11789683 65.64739494 -113.37866478 46.66576567 -107.75390625 30.22265625 C-99.67938775 10.27532549 -86.92605509 -2.44940542 -67.38964844 -11.07666016 C-44.87807165 -20.58736508 -18.92289867 -14.35229084 0 0 Z " fill="#39B6FE" transform="translate(242.5,96.875)"/>
<path d="M0 0 C0 0.66 0 1.32 0 2 C0.556875 2.2475 1.11375 2.495 1.6875 2.75 C4.42410913 4.22924818 6.67650869 5.93467439 9 8 C9 8.66 9 9.32 9 10 C9.66 10 10.32 10 11 10 C14.22935991 13.46831889 17.08653663 17.26435318 20 21 C20.78632813 22.00675781 21.57265625 23.01351562 22.3828125 24.05078125 C33.96714745 39.18895455 41.65118175 55.39672191 46 74 C46.22429687 74.95036133 46.22429687 74.95036133 46.453125 75.91992188 C50.87699587 95.46504103 50.6678071 116.53652913 46 136 C45.7009375 137.28261719 45.401875 138.56523437 45.09375 139.88671875 C41.71653911 153.19151581 36.24320636 165.38956628 29 177 C28.23429687 178.30517578 28.23429687 178.30517578 27.453125 179.63671875 C26.36810272 181.46530041 25.19561765 183.24173874 24 185 C23.34 185 22.68 185 22 185 C21.79375 185.680625 21.5875 186.36125 21.375 187.0625 C19.57104973 190.91639375 17.0989655 194.07787764 14 197 C13.34 197 12.68 197 12 197 C11.731875 197.639375 11.46375 198.27875 11.1875 198.9375 C10 201 10 201 7 202 C6.67 202.99 6.34 203.98 6 205 C-19.31447132 229.07961906 -54.22363385 240.72719832 -88.72802734 240.47705078 C-99.08626174 240.19187307 -108.95464007 238.44529518 -119 236 C-120.25941406 235.71125 -121.51882812 235.4225 -122.81640625 235.125 C-139.82187004 230.79141196 -154.54321936 221.63785376 -169 212 C-169 211.34 -169 210.68 -169 210 C-169.56589844 209.74863281 -170.13179687 209.49726563 -170.71484375 209.23828125 C-191.81574148 197.80411958 -206.86075509 168.58543513 -214 147 C-215.50136242 141.70775991 -216.75661389 136.35753133 -218 131 C-218.28423828 129.97519531 -218.28423828 129.97519531 -218.57421875 128.9296875 C-222.73319806 110.08073538 -220.73230304 88.32040148 -215.53076172 69.89013672 C-215.04281706 68.15247915 -214.58441098 66.40659814 -214.12890625 64.66015625 C-210.44092162 51.39980262 -203.71878004 39.32552376 -196 28 C-195.37738281 27.07960937 -194.75476563 26.15921875 -194.11328125 25.2109375 C-188.66533066 17.28456914 -188.66533066 17.28456914 -186 15 C-185.34 15 -184.68 15 -184 15 C-183.7525 14.4225 -183.505 13.845 -183.25 13.25 C-181.81700012 10.67060021 -180.21575324 8.93878408 -178 7 C-177.34 7 -176.68 7 -176 7 C-176 6.34 -176 5.68 -176 5 C-175.34 5 -174.68 5 -174 5 C-174 4.34 -174 3.68 -174 3 C-171.53301712 0.71821312 -168.72702538 -1.16647737 -166 -3.125 C-165.18926025 -3.70886475 -164.37852051 -4.29272949 -163.54321289 -4.89428711 C-156.05928152 -10.16356342 -148.3135371 -14.22368145 -140 -18 C-139.22011719 -18.39445312 -138.44023437 -18.78890625 -137.63671875 -19.1953125 C-94.75173915 -40.34635098 -36.26844431 -29.47957868 0 0 Z M-125.9375 -16.3125 C-126.68346436 -16.05831299 -127.42942871 -15.80412598 -128.19799805 -15.54223633 C-155.00425235 -6.07603871 -178.98702149 12.76709447 -194 37 C-194.515625 37.82757813 -195.03125 38.65515625 -195.5625 39.5078125 C-197.07810205 41.98582185 -198.55132159 44.48235376 -200 47 C-200.35964844 47.62132813 -200.71929687 48.24265625 -201.08984375 48.8828125 C-204.67174919 55.52875753 -206.75570538 62.82277594 -209 70 C-209.30164063 70.92941406 -209.60328125 71.85882813 -209.9140625 72.81640625 C-218.98615006 102.82760501 -213.97163852 136.92677188 -199.71875 164.4765625 C-198.51376184 166.67346165 -197.26963971 168.83996361 -196 171 C-195.22800198 172.35350303 -194.45707354 173.707617 -193.6875 175.0625 C-193.130625 176.031875 -192.57375 177.00125 -192 178 C-191.34 178 -190.68 178 -190 178 C-189.78472656 178.69609375 -189.56945312 179.3921875 -189.34765625 180.109375 C-187.64522073 183.76097582 -185.19390261 186.37682956 -182.4375 189.25 C-181.89448242 189.82282715 -181.35146484 190.3956543 -180.79199219 190.98583984 C-179.69838701 192.13589956 -178.60159479 193.28293802 -177.50146484 194.42675781 C-176.23671614 195.75196767 -174.99974564 197.10360814 -173.76953125 198.4609375 C-161.08267508 212.05575049 -143.72266091 221.01055635 -126.4375 227.3125 C-125.50272827 227.65825073 -125.50272827 227.65825073 -124.54907227 228.01098633 C-112.17966269 232.27613794 -99.80146954 233.55518936 -86.8125 233.4375 C-86.09521729 233.43445862 -85.37793457 233.43141724 -84.63891602 233.42828369 C-72.74271499 233.35400671 -61.44924288 232.38454559 -50 229 C-49.26442871 228.78569336 -48.52885742 228.57138672 -47.77099609 228.35058594 C-27.58914285 222.273473 -11.28325621 211.45099969 4 197 C4.76054687 196.29230469 5.52109375 195.58460938 6.3046875 194.85546875 C12.2285325 189.16734769 17.58951497 182.94416791 22 176 C22 175.01 22 174.02 22 173 C22.66 173 23.32 173 24 173 C42.53286016 142.24333847 47.27807066 107.19934494 38.96875 72.515625 C35.02411517 57.37564276 27.46003267 44.04551256 19 31 C18.36578125 29.99195313 17.7315625 28.98390625 17.078125 27.9453125 C14.94267262 24.91875029 12.67496262 22.55746793 10 20 C8.90941854 18.89260415 7.82237737 17.78171428 6.73828125 16.66796875 C5.59641694 15.50775071 4.45448901 14.34759529 3.3125 13.1875 C2.73177734 12.59001953 2.15105469 11.99253906 1.55273438 11.37695312 C0.07274424 9.87985327 -1.45982782 8.43511269 -3 7 C-3.66 7 -4.32 7 -5 7 C-5 6.34 -5 5.68 -5 5 C-7.13275488 3.35140499 -9.25063921 1.8507359 -11.5 0.375 C-12.51453247 -0.29160645 -12.51453247 -0.29160645 -13.54956055 -0.97167969 C-23.51459355 -7.38917472 -33.84053128 -12.48515182 -45.0625 -16.3125 C-45.73321533 -16.54291992 -46.40393066 -16.77333984 -47.0949707 -17.01074219 C-59.09734226 -20.87579244 -70.86999372 -22.50532329 -83.40673828 -22.39111328 C-85.49968564 -22.37500242 -87.59070336 -22.39108997 -89.68359375 -22.41015625 C-102.17557333 -22.43054095 -114.08775367 -20.38295834 -125.9375 -16.3125 Z " fill="#3B3B3B" transform="translate(282,44)"/>
<path d="M0 0 C1.02568631 3.12557112 1.00835842 4.783804 -0.25 7.8125 C-0.50265625 8.43769531 -0.7553125 9.06289062 -1.015625 9.70703125 C-1.81203817 11.56216828 -2.69088707 13.38177414 -3.59375 15.1875 C-5.44009222 19.50542829 -5.37459214 23.55285892 -5.25 28.1875 C-5.23686768 29.02249023 -5.22373535 29.85748047 -5.21020508 30.71777344 C-5.16212906 33.14643303 -5.0874925 35.57247147 -5 38 C-4.95746094 39.20785156 -4.91492188 40.41570312 -4.87109375 41.66015625 C-4.52570311 47.47300724 -3.55345037 51.78207967 -1 57 C-1 57.99 -1 58.98 -1 60 C-0.34 60.33 0.32 60.66 1 61 C0.67 61.99 0.34 62.98 0 64 C0.66 64.33 1.32 64.66 2 65 C1.01 65 0.02 65 -1 65 C-1.80157758 63.19186125 -2.59069175 61.37819627 -3.375 59.5625 C-3.81585938 58.55316406 -4.25671875 57.54382813 -4.7109375 56.50390625 C-7.54427455 48.80238098 -8.38934863 41.49265631 -8.375 33.3125 C-8.37338867 32.35005371 -8.37177734 31.38760742 -8.37011719 30.39599609 C-8.18043033 19.29187611 -5.44195284 9.71777293 0 0 Z " fill="#73C5F2" transform="translate(140,116)"/>
<path d="M0 0 C2.4525805 2.4525805 2.98703035 4.46225248 4.0625 7.75 C4.40410156 8.77609375 4.74570312 9.8021875 5.09765625 10.859375 C10.12166512 28.34553573 6.96045686 46.01615776 -1 62 C-2.31538327 57.84228506 -1.34433068 55.1120703 0 51 C0.66 51 1.32 51 2 51 C2.86591983 46.44544661 3.18670737 42.04616545 3.31640625 37.4140625 C3.33718735 36.71227875 3.35796844 36.010495 3.37937927 35.28744507 C3.44426324 33.06672042 3.5034723 30.84588724 3.5625 28.625 C3.60574354 27.11066629 3.6493596 25.59634317 3.69335938 24.08203125 C3.79988086 20.38813345 3.90131677 16.69411646 4 13 C3.34 13 2.68 13 2 13 C1.66127487 11.58461283 1.32925376 10.16762037 1 8.75 C0.814375 7.96109375 0.62875 7.1721875 0.4375 6.359375 C0 4 0 4 0 0 Z " fill="#4CB1EB" transform="translate(259,120)"/>
<path d="M0 0 C1.4540625 0.0309375 1.4540625 0.0309375 2.9375 0.0625 C-5.18669389 6.99488061 -17.06024721 7.42781643 -27.25 7.4375 C-28.61306274 7.43979614 -28.61306274 7.43979614 -30.00366211 7.44213867 C-34.30352163 7.3699162 -37.26090018 7.22452174 -41.0625 5.0625 C-40.29695801 5.04791748 -39.53141602 5.03333496 -38.74267578 5.01831055 C-35.22381431 4.94315298 -31.7058323 4.84671764 -28.1875 4.75 C-26.98351562 4.72744141 -25.77953125 4.70488281 -24.5390625 4.68164062 C-15.98420004 4.42592463 -7.69589649 0.15705911 0 0 Z " fill="#7CCAF3" transform="translate(225.0625,208.9375)"/>
<path d="M0 0 C0.33 0 0.66 0 1 0 C1.44163292 15.63707667 0.07806817 27.78791056 -7 42 C-8.31538327 37.84228506 -7.34433068 35.1120703 -6 31 C-5.34 31 -4.68 31 -4 31 C-3.34 26.38 -2.68 21.76 -2 17 C-1.67 17 -1.34 17 -1 17 C-0.67 11.39 -0.34 5.78 0 0 Z " fill="#9CDDF8" transform="translate(265,140)"/>
<path d="M0 0 C0.66 0.33 1.32 0.66 2 1 C1.67 2.65 1.34 4.3 1 6 C-0.65 6 -2.3 6 -4 6 C-4 6.66 -4 7.32 -4 8 C-4.66 8 -5.32 8 -6 8 C-6 8.66 -6 9.32 -6 10 C-7.65 10.66 -9.3 11.32 -11 12 C-9.49650623 8.33213607 -7.36271208 6.31089607 -4.375 3.75 C-3.14910156 2.69039063 -3.14910156 2.69039063 -1.8984375 1.609375 C-1.27195313 1.07828125 -0.64546875 0.5471875 0 0 Z " fill="#8DD2F2" transform="translate(159,94)"/>
<path d="M0 0 C3 2 3 2 3.66015625 4.12890625 C3.79292969 4.93199219 3.92570313 5.73507813 4.0625 6.5625 C4.42427653 8.94433029 4.42427653 8.94433029 5 11 C5.66 11.33 6.32 11.66 7 12 C6.67 12.99 6.34 13.98 6 15 C6.66 15.33 7.32 15.66 8 16 C7.01 16 6.02 16 5 16 C4.15787744 14.08717875 3.32661136 12.16957527 2.5 10.25 C2.0359375 9.18265625 1.571875 8.1153125 1.09375 7.015625 C0 4 0 4 0 0 Z " fill="#7EC9F5" transform="translate(134,165)"/>
<path d="M0 0 C3.39417765 3.12621626 5.6062718 5.56541027 7 10 C6.34 10.66 5.68 11.32 5 12 C5 11.34 5 10.68 5 10 C3.68 9.67 2.36 9.34 1 9 C0.67 6.03 0.34 3.06 0 0 Z " fill="#6DC2F2" transform="translate(250,106)"/>
<path d="M0 0 C2.46968633 2.46968633 3.06997969 4.57488587 4.1875 7.875 C4.55230469 8.92429688 4.91710937 9.97359375 5.29296875 11.0546875 C5.98462433 13.93594885 6.03230681 15.27786612 5 18 C4.67 16.35 4.34 14.7 4 13 C3.34 13 2.68 13 2 13 C1.66127487 11.58461283 1.32925376 10.16762037 1 8.75 C0.814375 7.96109375 0.62875 7.1721875 0.4375 6.359375 C0 4 0 4 0 0 Z " fill="#82CAF1" transform="translate(259,120)"/>
<path d="M0 0 C-2.77280706 3.08089673 -5.06326356 4.68775452 -9 6 C-8.39816251 3.97954558 -7.72693904 1.97888961 -7 0 C-4.3333581 -1.33332095 -2.83319697 -0.67102033 0 0 Z " fill="#68C2F5" transform="translate(241,201)"/>
<path d="M0 0 C0.66 0 1.32 0 2 0 C0.6062718 4.43458973 -1.60582235 6.87378374 -5 10 C-5 8.02 -5 6.04 -5 4 C-4.01 3.67 -3.02 3.34 -2 3 C-1.34 2.01 -0.68 1.02 0 0 Z " fill="#6FC5F1" transform="translate(255,182)"/>
<path d="M0 0 C0.33 0 0.66 0 1 0 C0.50269348 4.97306516 -0.55302334 8.63799813 -3 13 C-4.60080151 8.99799622 -3.29279692 5.95443764 -2 2 C-1.34 2 -0.68 2 0 2 C0 1.34 0 0.68 0 0 Z " fill="#76C5EE" transform="translate(261,169)"/>
<path d="M0 0 C0.66 0.33 1.32 0.66 2 1 C0.95125002 3.62187494 0.35068687 4.79371361 -2.125 6.25 C-2.74375 6.4975 -3.3625 6.745 -4 7 C-4 7.66 -4 8.32 -4 9 C-4.66 8.67 -5.32 8.34 -6 8 C-4.26440562 4.942048 -2.61527381 2.36620011 0 0 Z " fill="#7B7B7B" transform="translate(96,59)"/>
<path d="M0 0 C0.66 0.33 1.32 0.66 2 1 C-4.14285714 7.71428571 -4.14285714 7.71428571 -9 8 C-6.14723863 5.06799526 -3.34920216 2.35684596 0 0 Z " fill="#757575" transform="translate(123,36)"/>
<path d="M0 0 C7.625 0.875 7.625 0.875 11 2 C11 2.66 11 3.32 11 4 C7.0507432 3.44894091 3.65079826 2.61064629 0 1 C0 0.67 0 0.34 0 0 Z " fill="#80CAF1" transform="translate(172,210)"/>
<path d="M0 0 C0 3 0 3 -2.5 5.6875 C-3.325 6.450625 -4.15 7.21375 -5 8 C-5.66 7.67 -6.32 7.34 -7 7 C-4.69 4.69 -2.38 2.38 0 0 Z " fill="#8B8B8B" transform="translate(293,233)"/>
<path d="M0 0 C0.66 0.33 1.32 0.66 2 1 C1.67 2.65 1.34 4.3 1 6 C-0.65 6 -2.3 6 -4 6 C-1.125 1.125 -1.125 1.125 0 0 Z " fill="#6DC3F1" transform="translate(159,94)"/>
</svg>
