<?xml version="1.0" encoding="UTF-8"?>
<svg version="1.1" xmlns="http://www.w3.org/2000/svg" width="321" height="303">
<path d="M0 0 C23.76 0 47.52 0 72 0 C72 20.79 72 41.58 72 63 C92.68836743 62.96038734 92.68836743 62.96038734 113.37670898 62.90991211 C115.95817016 62.90699324 118.53963178 62.90444462 121.12109375 62.90234375 C121.79608414 62.89973038 122.47107452 62.897117 123.16651917 62.89442444 C125.14542498 62.88714339 127.12435228 62.8866616 129.10327148 62.88647461 C130.22023911 62.884254 131.33720673 62.88203339 132.48802185 62.87974548 C135 63 135 63 136 64 C136.09432985 66.20867831 136.11742431 68.42041521 136.11352539 70.63110352 C136.11367142 71.32375305 136.11381744 72.01640259 136.1139679 72.7300415 C136.11326874 75.02969446 136.10547628 77.32926737 136.09765625 79.62890625 C136.09579208 81.21931412 136.09436817 82.80972257 136.09336853 84.40013123 C136.08954329 88.5939593 136.07971295 92.78775295 136.06866455 96.98156738 C136.05665597 102.00923705 136.05204822 107.03691819 136.04621124 112.06459808 C136.03650119 119.70975602 136.01734471 127.35483838 136 135 C114.88 135 93.76 135 72 135 C72 155.79 72 176.58 72 198 C48.24 198 24.48 198 0 198 C0 177.21 0 156.42 0 135 C-20.79 135 -41.58 135 -63 135 C-63 111.24 -63 87.48 -63 63 C-42.21 63 -21.42 63 0 63 C0 42.21 0 21.42 0 0 Z " fill="#000000" transform="translate(117,42)"/>
<path d="M0 0 C1.13501953 0.27457031 1.13501953 0.27457031 2.29296875 0.5546875 C20.89006574 5.1683624 36.97816478 12.03785303 52 24 C52.89960449 24.7122876 52.89960449 24.7122876 53.81738281 25.43896484 C61.89028822 31.90454667 68.82144761 38.645901 75 47 C75.58910156 47.763125 76.17820312 48.52625 76.78515625 49.3125 C86.27332224 62.10747555 92.92683963 76.63982291 97 92 C97.26852783 93.00981934 97.53705566 94.01963867 97.8137207 95.06005859 C100.09997724 104.54012203 100.51874407 113.56157969 100.4375 123.25 C100.43293793 124.40553375 100.43293793 124.40553375 100.42828369 125.58441162 C100.36077638 137.14916346 99.65385247 147.96663595 96 159 C95.78037598 159.7120459 95.56075195 160.4240918 95.33447266 161.15771484 C89.15220017 181.130874 78.38968708 197.94222031 64 213 C63.01 214.10214844 63.01 214.10214844 62 215.2265625 C51.2007522 226.80302889 37.25376604 234.48443485 23 241 C22.13246094 241.40863281 21.26492187 241.81726563 20.37109375 242.23828125 C-8.10330673 254.71691023 -43.75234166 252.83024286 -72.2734375 241.9453125 C-87.1787437 235.96274708 -101.34782069 227.09731363 -113 216 C-113 215.34 -113 214.68 -113 214 C-114.32 213.34 -115.64 212.68 -117 212 C-117 211.34 -117 210.68 -117 210 C-117.66 210 -118.32 210 -119 210 C-140.89387745 188.1527233 -151.48242504 155.06749956 -152.3125 124.75 C-151.61011884 89.58704298 -138.47929305 58.92813763 -114 34 C-113.28199219 33.25492188 -112.56398437 32.50984375 -111.82421875 31.7421875 C-106.27443628 26.0616821 -106.27443628 26.0616821 -103 24 C-102.34 24 -101.68 24 -101 24 C-101 23.34 -101 22.68 -101 22 C-72.82217831 1.63894945 -34.23575036 -8.31896738 0 0 Z M-49 6 C-50.06476563 6.19464844 -51.12953125 6.38929687 -52.2265625 6.58984375 C-75.36950318 11.34794226 -95.88054943 23.92610828 -112 41 C-112.80824219 41.78890625 -113.61648437 42.5778125 -114.44921875 43.390625 C-122.63019585 51.75952653 -128.53050483 61.74030457 -134 72 C-134.33290039 72.61037109 -134.66580078 73.22074219 -135.00878906 73.84960938 C-137.75337039 79.05674083 -139.53896231 84.34118063 -141.125 90 C-141.38361816 90.91918213 -141.64223633 91.83836426 -141.90869141 92.78540039 C-150.13439882 123.09631647 -146.13458404 155.86975483 -130.625 183.25 C-127.0813365 189.07735776 -123.11262072 194.56418827 -119 200 C-118.20335937 201.1446875 -118.20335937 201.1446875 -117.390625 202.3125 C-116.93171875 202.869375 -116.4728125 203.42625 -116 204 C-115.34 204 -114.68 204 -114 204 C-113.68482422 204.81597656 -113.68482422 204.81597656 -113.36328125 205.6484375 C-111.4961443 208.86911499 -108.91986553 211.15364642 -106.1875 213.625 C-105.40536133 214.35976563 -105.40536133 214.35976563 -104.60742188 215.109375 C-101.58432288 217.87205723 -98.91826252 219.768753 -95 221 C-95 221.66 -95 222.32 -95 223 C-66.42818755 240.27170656 -34.51169734 249.86330982 -1 242 C-0.0085498 241.77401123 -0.0085498 241.77401123 1.00292969 241.54345703 C18.5414786 237.44798161 34.76588133 230.14695174 49 219 C49 218.34 49 217.68 49 217 C49.59603027 216.72704102 50.19206055 216.45408203 50.80615234 216.17285156 C70.48314785 205.65334495 83.81007779 178.03973263 90.14941406 157.85864258 C93.2403891 147.4214502 94.32935672 137.47463427 94.26074219 126.5847168 C94.25003209 124.56854057 94.26069412 122.55325858 94.2734375 120.53710938 C94.20772974 87.14114006 79.3707925 59.67302978 56.3671875 36.328125 C37.02040299 17.66664893 10.15195478 4.80579995 -17 4 C-17.65726074 3.97953613 -18.31452148 3.95907227 -18.99169922 3.93798828 C-29.18001941 3.66336437 -38.95218124 4.10260905 -49 6 Z " fill="#3B3B3B" transform="translate(180,21)"/>
<path d="M0 0 C23.76 0 47.52 0 72 0 C72 20.79 72 41.58 72 63 C92.68836743 62.96038734 92.68836743 62.96038734 113.37670898 62.90991211 C115.95817016 62.90699324 118.53963178 62.90444462 121.12109375 62.90234375 C121.79608414 62.89973038 122.47107452 62.897117 123.16651917 62.89442444 C125.14542498 62.88714339 127.12435228 62.8866616 129.10327148 62.88647461 C130.22023911 62.884254 131.33720673 62.88203339 132.48802185 62.87974548 C135 63 135 63 136 64 C136.09432985 66.20867831 136.11742431 68.42041521 136.11352539 70.63110352 C136.11367142 71.32375305 136.11381744 72.01640259 136.1139679 72.7300415 C136.11326874 75.02969446 136.10547628 77.32926737 136.09765625 79.62890625 C136.09579208 81.21931412 136.09436817 82.80972257 136.09336853 84.40013123 C136.08954329 88.5939593 136.07971295 92.78775295 136.06866455 96.98156738 C136.05665597 102.00923705 136.05204822 107.03691819 136.04621124 112.06459808 C136.03650119 119.70975602 136.01734471 127.35483838 136 135 C114.88 135 93.76 135 72 135 C72 155.79 72 176.58 72 198 C71.67 198 71.34 198 71 198 C71 176.88 71 155.76 71 134 C92.12 134 113.24 134 135 134 C135 111.23 135 88.46 135 65 C113.88 65 92.76 65 71 65 C71 43.88 71 22.76 71 1 C48.23 1 25.46 1 2 1 C2 22.12 2 43.24 2 65 C-19.12 65 -40.24 65 -62 65 C-62 87.77 -62 110.54 -62 134 C-40.88 134 -19.76 134 2 134 C2 155.12 2 176.24 2 198 C1.34 198 0.68 198 0 198 C0 177.21 0 156.42 0 135 C-20.79 135 -41.58 135 -63 135 C-63 111.24 -63 87.48 -63 63 C-42.21 63 -21.42 63 0 63 C0 42.21 0 21.42 0 0 Z " fill="#A7A7A7" transform="translate(117,42)"/>
<path d="M0 0 C1.32 0.66 2.64 1.32 4 2 C4.31524377 6.14215651 3.57609342 8.23794327 1.3125 11.6875 C-1.82111298 16.63726872 -4.46295773 21.72385014 -7 27 C-7.33 25.68 -7.66 24.36 -8 23 C-9.32 23.33 -10.64 23.66 -12 24 C-11.39361741 19.23162778 -9.4008089 15.58534526 -7.125 11.4375 C-6.77308594 10.77814453 -6.42117187 10.11878906 -6.05859375 9.43945312 C-4.24961011 6.09384213 -2.40146577 2.96784921 0 0 Z " fill="#444444" transform="translate(50,74)"/>
<path d="M0 0 C2.64824722 0.35787125 4.55535876 0.68239911 6.75 2.25 C8.31760089 4.44464124 8.64212875 6.35175278 9 9 C6.8125 9.3125 6.8125 9.3125 4 9 C1.125 6.75 1.125 6.75 -1 4 C-0.8125 1.6875 -0.8125 1.6875 0 0 Z " fill="#2C2C2C" transform="translate(84,244)"/>
<path d="M0 0 C-1.58667578 3.90285767 -4.13350481 6.33520982 -7.125 9.25 C-8.03507812 10.14203125 -8.94515625 11.0340625 -9.8828125 11.953125 C-10.58148438 12.62859375 -11.28015625 13.3040625 -12 14 C-12.99 13.67 -13.98 13.34 -15 13 C-12.88094537 10.82722286 -10.75527122 8.66173092 -8.625 6.5 C-8.02171875 5.87996094 -7.4184375 5.25992188 -6.796875 4.62109375 C-6.21679688 4.03457031 -5.63671875 3.44804688 -5.0390625 2.84375 C-4.50490723 2.29912109 -3.97075195 1.75449219 -3.42041016 1.19335938 C-2 0 -2 0 0 0 Z " fill="#575757" transform="translate(75,48)"/>
</svg>
