<?xml version="1.0" encoding="UTF-8"?>
<svg version="1.1" xmlns="http://www.w3.org/2000/svg" width="373" height="321">
<path d="M0 0 C24.09 0 48.18 0 73 0 C73 22.77 73 45.54 73 69 C95.77 69 118.54 69 142 69 C142 93.09 142 117.18 142 142 C119.23 142 96.46 142 73 142 C73.03961387 164.66297567 73.03961387 164.66297567 73.09008789 187.32592773 C73.09460449 191.70129395 73.09460449 191.70129395 73.09544373 193.74720764 C73.096983 195.18133351 73.10050759 196.61545806 73.10557556 198.04957581 C73.11285524 200.21723695 73.11390734 202.38481876 73.11352539 204.55249023 C73.115746 205.77604721 73.11796661 206.99960419 73.12025452 208.26023865 C73 211 73 211 72 212 C69.79675026 212.09960152 67.5902651 212.12799757 65.38476562 212.12939453 C64.69372238 212.13114685 64.00267914 212.13289917 63.29069519 212.13470459 C60.99585493 212.13912254 58.70109111 212.13618533 56.40625 212.1328125 C54.81823715 212.13348556 53.23022441 212.13445559 51.64221191 212.13571167 C48.3098045 212.13718857 44.97742384 212.13503436 41.64501953 212.13037109 C37.3640149 212.1246738 33.08307295 212.12795285 28.80207062 212.13394356 C25.52166264 212.1375494 22.24126963 212.13641048 18.96086121 212.13381577 C17.3819325 212.13314656 15.80300246 212.1339747 14.22407532 212.13629532 C12.02109147 212.13882223 9.81821051 212.13498075 7.61523438 212.12939453 C5.73112854 212.12820114 5.73112854 212.12820114 3.80895996 212.12698364 C1 212 1 212 0 211 C-0.09425595 208.85256451 -0.11742648 206.70198974 -0.11352539 204.55249023 C-0.11367142 203.87934784 -0.11381744 203.20620544 -0.1139679 202.51266479 C-0.11326878 200.27794216 -0.10547652 198.0433019 -0.09765625 195.80859375 C-0.09579206 194.26302638 -0.09436816 192.71745843 -0.09336853 191.17189026 C-0.0895434 187.09642923 -0.07971317 183.02100363 -0.06866455 178.94555664 C-0.05845032 174.78988118 -0.05387089 170.63420001 -0.04882812 166.47851562 C-0.03809089 158.31899413 -0.02101454 150.15950147 0 142 C-0.86221664 142.00222061 -1.72443329 142.00444122 -2.61277771 142.00672913 C-10.72106036 142.02672995 -18.82933477 142.04197306 -26.93763638 142.05181217 C-31.10662828 142.05704051 -35.27559987 142.06413726 -39.44458008 142.07543945 C-43.46457686 142.08627008 -47.48455405 142.09227721 -51.50456429 142.09487724 C-53.04162975 142.09673118 -54.57869409 142.10035119 -56.11575127 142.10573006 C-58.26135487 142.11294284 -60.40687655 142.11399084 -62.55249023 142.11352539 C-63.77604721 142.115746 -64.99960419 142.11796661 -66.26023865 142.12025452 C-69 142 -69 142 -70 141 C-70.09960152 138.79675026 -70.12799757 136.5902651 -70.12939453 134.38476562 C-70.13114685 133.69372238 -70.13289917 133.00267914 -70.13470459 132.29069519 C-70.13912254 129.99585493 -70.13618533 127.70109111 -70.1328125 125.40625 C-70.13348556 123.81823715 -70.13445559 122.23022441 -70.13571167 120.64221191 C-70.13718857 117.3098045 -70.13503436 113.97742384 -70.13037109 110.64501953 C-70.1246738 106.3640149 -70.12795285 102.08307295 -70.13394356 97.80207062 C-70.1375494 94.52166264 -70.13641048 91.24126963 -70.13381577 87.96086121 C-70.13314656 86.3819325 -70.1339747 84.80300246 -70.13629532 83.22407532 C-70.13882223 81.02109147 -70.13498075 78.81821051 -70.12939453 76.61523438 C-70.12859894 75.35916382 -70.12780334 74.10309326 -70.12698364 72.80895996 C-70 70 -70 70 -69 69 C-66.85256451 68.90574405 -64.70198974 68.88257352 -62.55249023 68.88647461 C-61.86842889 68.88635407 -61.18436754 68.88623354 -60.47957706 68.88610935 C-58.25588337 68.88685829 -56.03227254 68.89448559 -53.80859375 68.90234375 C-52.43949423 68.90381323 -51.07039414 68.9048339 -49.70129395 68.90539551 C-44.61335409 68.91064768 -39.52542624 68.92460878 -34.4375 68.9375 C-17.3909375 68.9684375 -17.3909375 68.9684375 0 69 C0 46.23 0 23.46 0 0 Z " fill="#F97E01" transform="translate(160,43)"/>
<path d="M0 0 C24.05911942 21.52939838 39.74407373 49.88710176 44 82 C44.17055908 82.94198242 44.34111816 83.88396484 44.5168457 84.85449219 C46.86689407 100.15415018 45.81203633 117.00846982 42 132 C41.82839355 132.69206543 41.65678711 133.38413086 41.47998047 134.09716797 C36.42839493 153.964932 27.83066593 171.11364149 14.7265625 186.9140625 C12.9643765 188.98810225 12.9643765 188.98810225 11.3984375 191.2734375 C10.93695313 191.84320313 10.47546875 192.41296875 10 193 C9.34 193 8.68 193 8 193 C7.731875 193.639375 7.46375 194.27875 7.1875 194.9375 C6 197 6 197 3 198 C2.3096616 199.32123242 1.6448292 200.65596967 1 202 C-0.45776367 203.4128418 -0.45776367 203.4128418 -2.16796875 204.69921875 C-2.80565186 205.18165039 -3.44333496 205.66408203 -4.1003418 206.16113281 C-4.789104 206.66483398 -5.47786621 207.16853516 -6.1875 207.6875 C-7.26608276 208.47979004 -7.26608276 208.47979004 -8.36645508 209.28808594 C-27.21472292 222.94858654 -46.9676386 231.18215122 -70 235 C-71.6396875 235.28617187 -71.6396875 235.28617187 -73.3125 235.578125 C-90.15222657 237.50470389 -106.60618727 235.99066948 -123 232 C-124.25941406 231.71125 -125.51882812 231.4225 -126.81640625 231.125 C-141.35419419 227.42026223 -154.5340129 220.18456532 -167 212 C-168.10988281 211.30390625 -169.21976563 210.6078125 -170.36328125 209.890625 C-171.66845703 208.95476562 -171.66845703 208.95476562 -173 208 C-173 207.34 -173 206.68 -173 206 C-173.56589844 205.74863281 -174.13179687 205.49726563 -174.71484375 205.23828125 C-196.96876778 193.17931729 -212.24447751 162.09877531 -219.12890625 139.25390625 C-228.26803663 106.21657023 -225.55761315 68.16318994 -208.79296875 37.87890625 C-206.64648963 34.1744395 -204.35866657 30.57223686 -202 27 C-201.32066406 25.95972656 -200.64132813 24.91945312 -199.94140625 23.84765625 C-196.5641425 18.841442 -196.5641425 18.841442 -195 17 C-194.34 17 -193.68 17 -193 17 C-192.75121094 16.43667969 -192.50242187 15.87335938 -192.24609375 15.29296875 C-181.57959968 -4.33471782 -153.82597027 -20.00435673 -132.89648438 -26.66992188 C-85.94657073 -40.19509282 -37.47591913 -32.31658551 0 0 Z M-129.9375 -20.3125 C-130.68346436 -20.05831299 -131.42942871 -19.80412598 -132.19799805 -19.54223633 C-150.68561675 -13.0136311 -165.96294468 -2.57385264 -180 11 C-180.76441406 11.72445312 -181.52882812 12.44890625 -182.31640625 13.1953125 C-186.66724179 17.4057985 -190.79756427 21.83243325 -194 27 C-194 27.66 -194 28.32 -194 29 C-194.66 29 -195.32 29 -196 29 C-198.03311105 32.64917367 -200.0234176 36.31991567 -202 40 C-202.5878125 41.08410156 -203.175625 42.16820313 -203.78125 43.28515625 C-208.32586079 51.96576151 -211.34376887 60.59873253 -214 70 C-214.35191406 71.14597656 -214.70382813 72.29195313 -215.06640625 73.47265625 C-222.79689989 102.68033722 -217.3286854 136.442255 -202.48828125 162.48046875 C-197.35088006 171.23638729 -191.88767512 179.50586291 -185 187 C-184.50693359 187.54076172 -184.01386719 188.08152344 -183.50585938 188.63867188 C-162.5811026 211.33456889 -132.74975724 227.5510598 -101.54931641 229.18017578 C-79.14112856 229.98118596 -58.69745301 228.06920002 -38 219 C-37.35111816 218.7220459 -36.70223633 218.4440918 -36.03369141 218.15771484 C-14.62449436 208.82117508 4.16963015 192.46375834 17 173 C17.57878906 172.18917969 18.15757812 171.37835938 18.75390625 170.54296875 C37.0565896 143.88738292 42.7537654 109.05504399 36.98046875 77.61328125 C35.55348533 70.54638616 33.43243283 63.77867167 31 57 C30.64292969 55.989375 30.28585937 54.97875 29.91796875 53.9375 C24.30006395 39.32697727 15.66514069 26.37042816 5 15 C4.53948242 14.50773926 4.07896484 14.01547852 3.60449219 13.50830078 C-11.98226012 -2.96865496 -29.67221426 -13.65309754 -51 -21 C-51.96808594 -21.33773438 -52.93617188 -21.67546875 -53.93359375 -22.0234375 C-64.81115235 -25.53906444 -75.82476404 -26.35085486 -87.18041992 -26.31567383 C-89.29984327 -26.31251884 -91.41785761 -26.33605512 -93.53710938 -26.36132812 C-106.09893823 -26.42043297 -118.01664326 -24.40738519 -129.9375 -20.3125 Z " fill="#030303" transform="translate(287,51)"/>
<path d="M0 0 C0.99 0.33 1.98 0.66 3 1 C2.91572455 9.8317105 2.82089174 18.66322541 2.71247292 27.49467278 C2.66246695 31.59520949 2.61613754 35.6957199 2.578125 39.79638672 C2.54132617 43.75168199 2.49498144 47.70675945 2.44193649 51.66186905 C2.42336368 53.17294632 2.40826644 54.68407033 2.39665604 56.19521713 C2.37984247 58.30729362 2.35082079 60.41886808 2.31884766 62.53076172 C2.30552399 63.73433319 2.29220032 64.93790466 2.2784729 66.177948 C2 69 2 69 0 71 C-2.65673828 71.31884766 -2.65673828 71.31884766 -6.0703125 71.4140625 C-7.34519531 71.45281494 -8.62007812 71.49156738 -9.93359375 71.53149414 C-11.33071809 71.56315521 -12.72785395 71.59431182 -14.125 71.625 C-15.5507903 71.66299186 -16.97657151 71.70132639 -18.40234375 71.73999023 C-33.59944513 72.12566318 -48.79937443 72.09928061 -64 72 C-64.495 72.99 -64.495 72.99 -65 74 C-66.485 74.495 -66.485 74.495 -68 75 C-68.33 96.45 -68.66 117.9 -69 140 C-45.9 140 -22.8 140 1 140 C1 163.43 1 186.86 1 211 C0.67 211 0.34 211 0 211 C0 188.23 0 165.46 0 142 C-22.66297567 142.03961387 -22.66297567 142.03961387 -45.32592773 142.09008789 C-49.70129395 142.09460449 -49.70129395 142.09460449 -51.74720764 142.09544373 C-53.18133351 142.096983 -54.61545806 142.10050759 -56.04957581 142.10557556 C-58.21723695 142.11285524 -60.38481876 142.11390734 -62.55249023 142.11352539 C-63.77604721 142.115746 -64.99960419 142.11796661 -66.26023865 142.12025452 C-69 142 -69 142 -70 141 C-70.09960152 138.79675026 -70.12799757 136.5902651 -70.12939453 134.38476562 C-70.13114685 133.69372238 -70.13289917 133.00267914 -70.13470459 132.29069519 C-70.13912254 129.99585493 -70.13618533 127.70109111 -70.1328125 125.40625 C-70.13348556 123.81823715 -70.13445559 122.23022441 -70.13571167 120.64221191 C-70.13718857 117.3098045 -70.13503436 113.97742384 -70.13037109 110.64501953 C-70.1246738 106.3640149 -70.12795285 102.08307295 -70.13394356 97.80207062 C-70.1375494 94.52166264 -70.13641048 91.24126963 -70.13381577 87.96086121 C-70.13314656 86.3819325 -70.1339747 84.80300246 -70.13629532 83.22407532 C-70.13882223 81.02109147 -70.13498075 78.81821051 -70.12939453 76.61523438 C-70.12859894 75.35916382 -70.12780334 74.10309326 -70.12698364 72.80895996 C-70 70 -70 70 -69 69 C-66.85256451 68.90574405 -64.70198974 68.88257352 -62.55249023 68.88647461 C-61.86842889 68.88635407 -61.18436754 68.88623354 -60.47957706 68.88610935 C-58.25588337 68.88685829 -56.03227254 68.89448559 -53.80859375 68.90234375 C-52.43949423 68.90381323 -51.07039414 68.9048339 -49.70129395 68.90539551 C-44.61335409 68.91064768 -39.52542624 68.92460878 -34.4375 68.9375 C-17.3909375 68.9684375 -17.3909375 68.9684375 0 69 C0 46.23 0 23.46 0 0 Z " fill="#EB8B28" transform="translate(160,43)"/>
<path d="M0 0 C0.66 0 1.32 0 2 0 C2 22.77 2 45.54 2 69 C24.77 69 47.54 69 71 69 C71 93.09 71 117.18 71 142 C48.23 142 25.46 142 2 142 C2 141.34 2 140.68 2 140 C24.11 140 46.22 140 69 140 C69.33 116.9 69.66 93.8 70 70 C60.76 70.33 51.52 70.66 42 71 C34.41154933 71.06215965 26.83691425 71.09814449 19.25 71.0625 C12.8975 71.041875 6.545 71.02125 0 71 C0 47.57 0 24.14 0 0 Z " fill="#E88C2F" transform="translate(231,43)"/>
<path d="M0 0 C0.33 0 0.66 0 1 0 C1.0154612 1.23361771 1.0154612 1.23361771 1.03123474 2.49215698 C1.12910168 10.23229914 1.23160056 17.97235937 1.33933926 25.71236992 C1.39456799 29.6918445 1.4479879 33.67132644 1.49731445 37.65087891 C1.54495877 41.48939641 1.59730158 45.32782341 1.65294075 49.16623306 C1.67336401 50.63266886 1.69207715 52.09912947 1.70907402 53.56560898 C1.73311876 55.61528265 1.763173 57.66478482 1.79467773 59.71435547 C1.81022202 60.88239716 1.8257663 62.05043884 1.84178162 63.25387573 C1.81641289 65.96201406 1.81641289 65.96201406 3 68 C36.165 68.495 36.165 68.495 70 69 C70 69.33 70 69.66 70 70 C46.9 70 23.8 70 0 70 C0 46.9 0 23.8 0 0 Z " fill="#F58513" transform="translate(161,184)"/>
</svg>
