<?xml version="1.0" encoding="UTF-8"?>
<svg version="1.1" xmlns="http://www.w3.org/2000/svg" width="296" height="292">
<path d="M0 0 C3.30529333 2.68521542 6.46757325 5.51188249 9.59375 8.40234375 C10.10534668 8.8701123 10.61694336 9.33788086 11.14404297 9.81982422 C33.48198646 30.45744851 47.60465999 58.30284641 51.59375 88.40234375 C51.76430908 89.34432617 51.93486816 90.28630859 52.1105957 91.25683594 C54.47538448 106.65245928 53.22777353 123.3047696 49.59375 138.40234375 C49.3769458 139.36720703 49.3769458 139.36720703 49.15576172 140.3515625 C47.06512524 149.63093238 43.91529058 157.94431596 39.59375 166.40234375 C39.15417969 167.29050781 38.71460938 168.17867187 38.26171875 169.09375 C32.73443479 179.78195615 25.69397885 190.4713222 17.59375 199.40234375 C16.93375 199.40234375 16.27375 199.40234375 15.59375 199.40234375 C15.325625 200.04171875 15.0575 200.68109375 14.78125 201.33984375 C13.59375 203.40234375 13.59375 203.40234375 10.59375 204.40234375 C10.26375 205.39234375 9.93375 206.38234375 9.59375 207.40234375 C7.46389581 209.26596617 5.33840073 211.00095939 3.09375 212.71484375 C2.5059375 213.17568359 1.918125 213.63652344 1.3125 214.11132812 C-14.31882472 226.22223596 -32.09293308 235.00736986 -51.40625 239.40234375 C-52.09154785 239.5631543 -52.7768457 239.72396484 -53.48291016 239.88964844 C-74.10341407 244.5423325 -94.99061472 243.37202676 -115.40625 238.40234375 C-116.66566406 238.11359375 -117.92507812 237.82484375 -119.22265625 237.52734375 C-151.47056709 229.30944611 -178.56582499 206.90047916 -196.40625 179.40234375 C-196.93734375 178.63019531 -197.4684375 177.85804688 -198.015625 177.0625 C-206.52825553 164.04183663 -211.13748776 148.47189172 -214.40625 133.40234375 C-214.591875 132.72816406 -214.7775 132.05398437 -214.96875 131.359375 C-221.69327935 101.27911427 -213.91666886 64.67088427 -197.8972168 38.68798828 C-194.06104275 32.67779179 -189.79565511 27.0169041 -185.40625 21.40234375 C-184.86742187 20.63277344 -184.32859375 19.86320312 -183.7734375 19.0703125 C-183.09667969 18.24466797 -183.09667969 18.24466797 -182.40625 17.40234375 C-181.74625 17.40234375 -181.08625 17.40234375 -180.40625 17.40234375 C-180.15875 16.82484375 -179.91125 16.24734375 -179.65625 15.65234375 C-178.22325012 13.07294396 -176.62200324 11.34112783 -174.40625 9.40234375 C-173.74625 9.40234375 -173.08625 9.40234375 -172.40625 9.40234375 C-172.40625 8.74234375 -172.40625 8.08234375 -172.40625 7.40234375 C-170.50453812 5.74854979 -168.60654255 4.22324525 -166.59375 2.71484375 C-165.99989502 2.26641113 -165.40604004 1.81797852 -164.79418945 1.35595703 C-145.53917369 -13.02929347 -125.15444803 -21.8425993 -101.40625 -25.59765625 C-99.82263672 -25.87609375 -99.82263672 -25.87609375 -98.20703125 -26.16015625 C-63.9833792 -30.09956944 -27.3962235 -21.41323154 0 0 Z M-122.34375 -13.91015625 C-123.08971436 -13.65596924 -123.83567871 -13.40178223 -124.60424805 -13.13989258 C-143.09910238 -6.6087322 -158.35456327 3.83659432 -172.40625 17.40234375 C-173.13585937 18.08039062 -173.86546875 18.7584375 -174.6171875 19.45703125 C-188.97139164 33.13040357 -198.28087495 50.7580239 -204.40625 69.40234375 C-204.79683594 70.56378906 -205.18742187 71.72523437 -205.58984375 72.921875 C-215.52008723 104.74957847 -210.3655132 139.05490269 -195.40625 168.40234375 C-190.21608364 178.07593042 -183.78505199 186.34665569 -176.40625 194.40234375 C-175.93703125 194.91684082 -175.4678125 195.43133789 -174.984375 195.96142578 C-160.84830553 211.25770151 -143.97493822 222.19813798 -124.40625 229.21484375 C-123.63643799 229.49295898 -122.86662598 229.77107422 -122.07348633 230.05761719 C-108.93512881 234.53106105 -96.10557068 235.98471487 -82.34375 235.90234375 C-81.58366638 235.90124603 -80.82358276 235.90014832 -80.04046631 235.89901733 C-66.99326751 235.84518803 -54.88157769 234.429208 -42.40625 230.40234375 C-41.18808594 230.01820313 -39.96992188 229.6340625 -38.71484375 229.23828125 C-20.9102881 222.93919658 -6.06241976 212.28978872 7.59375 199.40234375 C8.33109375 198.72945312 9.0684375 198.0565625 9.828125 197.36328125 C33.55450931 174.89893866 45.81232392 142.25643763 46.94067383 109.98413086 C47.32368354 81.58479326 37.81648108 56.87605093 22.59375 33.40234375 C21.95953125 32.39429688 21.3253125 31.38625 20.671875 30.34765625 C18.53642262 27.32109404 16.26871262 24.95981168 13.59375 22.40234375 C12.50316854 21.2949479 11.41612737 20.18405803 10.33203125 19.0703125 C9.19016694 17.91009446 8.04823901 16.74993904 6.90625 15.58984375 C6.32552734 14.99236328 5.74480469 14.39488281 5.14648438 13.77929688 C3.66649424 12.28219702 2.13392218 10.83745644 0.59375 9.40234375 C-0.06625 9.40234375 -0.72625 9.40234375 -1.40625 9.40234375 C-1.40625 8.74234375 -1.40625 8.08234375 -1.40625 7.40234375 C-3.53900488 5.75374874 -5.65688921 4.25307965 -7.90625 2.77734375 C-8.92078247 2.1107373 -8.92078247 2.1107373 -9.95581055 1.43066406 C-19.92084355 -4.98683097 -30.24678128 -10.08280807 -41.46875 -13.91015625 C-42.13946533 -14.14057617 -42.81018066 -14.37099609 -43.5012207 -14.60839844 C-55.50359226 -18.47344869 -67.27624372 -20.10297954 -79.81298828 -19.98876953 C-81.90593564 -19.97265867 -83.99695336 -19.98874622 -86.08984375 -20.0078125 C-98.58182333 -20.0281972 -110.49400367 -17.98061459 -122.34375 -13.91015625 Z " fill="#020202" transform="translate(227.40625,41.59765625)"/>
<path d="M0 0 C0.33 2.31 0.66 4.62 1 7 C4.3 7.33 7.6 7.66 11 8 C11 10.64 11 13.28 11 16 C13.64 16 16.28 16 19 16 C20.74146249 19.02146391 21.24844194 21.18243109 21.24050903 24.65704346 C21.24463303 26.05362686 21.24463303 26.05362686 21.24884033 27.47842407 C21.2380545 28.99972427 21.2380545 28.99972427 21.22705078 30.55175781 C21.22734283 31.62523468 21.22763489 32.69871155 21.22793579 33.80471802 C21.22654203 37.35426913 21.21097843 40.90361054 21.1953125 44.453125 C21.19158254 46.91363409 21.18873549 49.37414466 21.18673706 51.83465576 C21.17909929 58.31197202 21.15944947 64.78919865 21.1373291 71.26647949 C21.11687383 77.87555733 21.10773602 84.48464964 21.09765625 91.09375 C21.0762038 104.06253825 21.04245026 117.03126436 21 130 C16.66469007 132.13681583 12.69638796 132.27981214 7.96022034 132.24723816 C6.75347252 132.25085978 6.75347252 132.25085978 5.52234596 132.25455457 C2.82934897 132.26018569 0.13658981 132.25153282 -2.55639648 132.24291992 C-4.48826156 132.24399296 -6.42012632 132.24593196 -8.35198975 132.24867249 C-13.59782877 132.25352082 -18.84358275 132.2458649 -24.0894115 132.23571944 C-29.57857336 132.22693678 -35.06773257 132.22869644 -40.55690002 132.2290802 C-49.77631045 132.22814353 -58.99568798 132.21945974 -68.21508789 132.20581055 C-78.87316385 132.19008968 -89.53120375 132.1848123 -100.18929046 132.1855461 C-110.44139 132.18615663 -120.6934778 132.18104862 -130.94557381 132.17275429 C-135.30866653 132.16922444 -139.67175509 132.16739146 -144.03484917 132.16686058 C-149.173825 132.16585547 -154.3127706 132.15974498 -159.45173645 132.14969444 C-161.33752317 132.14677547 -163.22331336 132.14554286 -165.10910225 132.14612198 C-167.68384578 132.14661343 -170.25850493 132.14094946 -172.83323669 132.13371277 C-173.95168044 132.13603567 -173.95168044 132.13603567 -175.09271902 132.1384055 C-179.16507486 132.11951434 -183.00419529 131.78909349 -187 131 C-187.15665246 121.15662059 -187.30471433 111.31315471 -187.4429636 101.46949959 C-187.50746297 96.89447263 -187.57449575 92.31951767 -187.64819336 87.74462891 C-187.94886884 68.9636346 -188.13510878 50.20786797 -187.58984375 31.4296875 C-187.55928485 30.32311483 -187.55928485 30.32311483 -187.5281086 29.19418716 C-187.18256554 17.18256554 -187.18256554 17.18256554 -186 16 C-183.67182036 15.63239269 -181.3381615 15.29758419 -179 15 C-178.67 12.69 -178.34 10.38 -178 8 C-175.36 7.67 -172.72 7.34 -170 7 C-169.67 4.69 -169.34 2.38 -169 0 C-161.66237386 -0.09340751 -154.32487957 -0.16411846 -146.9867754 -0.20724869 C-143.57796273 -0.22796765 -140.16956201 -0.2559899 -136.76098633 -0.30175781 C-132.8263879 -0.35424748 -128.89194591 -0.3730748 -124.95703125 -0.390625 C-123.15465752 -0.42159271 -123.15465752 -0.42159271 -121.31587219 -0.45318604 C-110.80688826 -0.4559226 -100.62659611 1.54973298 -91.875 7.625 C-91.00617188 8.21539062 -90.13734375 8.80578125 -89.2421875 9.4140625 C-88.50226563 9.93742187 -87.76234375 10.46078125 -87 11 C-86.01 11.66 -85.02 12.32 -84 13 C-83.071875 12.113125 -82.14375 11.22625 -81.1875 10.3125 C-70.99576288 1.5855672 -58.73769727 -0.27683842 -45.80078125 -0.44921875 C-44.0709626 -0.48182549 -44.0709626 -0.48182549 -42.30619812 -0.51509094 C-39.87990754 -0.55882926 -37.45353214 -0.59806854 -35.02709961 -0.63305664 C-31.31400584 -0.68747793 -27.60145407 -0.7576731 -23.88867188 -0.83007812 C-21.5260575 -0.87072261 -19.16342743 -0.91046718 -16.80078125 -0.94921875 C-15.13817009 -0.98036018 -15.13817009 -0.98036018 -13.44197083 -1.01213074 C-11.88961983 -1.03259209 -11.88961983 -1.03259209 -10.3059082 -1.0534668 C-9.39960159 -1.06741989 -8.49329498 -1.08137299 -7.55952454 -1.0957489 C-4.94088757 -0.99778867 -2.55067534 -0.58422127 0 0 Z M-166 3 C-166 38.97 -166 74.94 -166 112 C-162.57697491 113.71151254 -158.65366579 113.07589429 -154.890625 113.02734375 C-153.00130406 113.01467494 -151.11198103 113.00231571 -149.22265625 112.99023438 C-146.25432743 112.96564035 -143.2861092 112.9379119 -140.31787109 112.90405273 C-109.70872748 112.57677868 -109.70872748 112.57677868 -98.375 119 C-97.70855469 119.35578125 -97.04210937 119.7115625 -96.35546875 120.078125 C-94.56233892 121.03732419 -92.78054221 122.01763188 -91 123 C-89.6693203 123.67194773 -88.33660297 124.33991309 -87 125 C-86.81295942 110.89205359 -86.67250071 96.78429992 -86.58550262 82.67536736 C-86.5437478 76.1239612 -86.48711085 69.57338778 -86.39648438 63.02246094 C-86.30957382 56.70059145 -86.26172809 50.37952297 -86.24098206 44.0571022 C-86.22619762 41.64485181 -86.19732619 39.23264538 -86.15415955 36.82073593 C-86.09609084 33.44186377 -86.08808666 30.0663024 -86.09179688 26.68701172 C-86.06303467 25.68935287 -86.03427246 24.69169403 -86.00463867 23.6638031 C-86.03966199 18.41487247 -86.03966199 18.41487247 -88.7124176 14.08496475 C-90.74565127 12.53043664 -92.76257323 11.23856218 -95 10 C-95.60557487 9.62552671 -96.21114975 9.25105343 -96.83507538 8.86523247 C-116.40225653 -2.25479188 -147.75111071 3 -166 3 Z M-79 13 C-79.85760422 13.64305588 -80.71520844 14.28611176 -81.59880066 14.94865417 C-85.07658268 19.3680772 -84.66682796 23.00796128 -84.56762695 28.48168945 C-84.56835709 29.53580521 -84.56908722 30.58992096 -84.56983948 31.67597961 C-84.56635972 35.15560597 -84.5274778 38.63388911 -84.48828125 42.11328125 C-84.47895457 44.52751433 -84.47183777 46.94175688 -84.46684265 49.35600281 C-84.44776179 55.70694149 -84.39865037 62.05730745 -84.34332275 68.40802002 C-84.29215449 74.88977308 -84.2693337 81.37161877 -84.24414062 87.85351562 C-84.19053373 100.56925461 -84.10616933 113.28459683 -84 126 C-82.24441631 125.04626352 -80.48929785 124.09167065 -78.734375 123.13671875 C-77.75694336 122.60522217 -76.77951172 122.07372559 -75.77246094 121.52612305 C-73.57796816 120.31814715 -71.41306301 119.07488245 -69.25 117.8125 C-56.45063879 111.6590529 -41.60583313 112.65467774 -27.8125 112.875 C-24.8872823 112.91018841 -21.96210763 112.94090359 -19.03678894 112.96633911 C-17.23260906 112.98319159 -15.42847314 113.00622883 -13.62446594 113.03634644 C-12.81229111 113.04610504 -12.00011627 113.05586365 -11.16333008 113.06591797 C-10.09868279 113.08282181 -10.09868279 113.08282181 -9.01252747 113.10006714 C-6.63947202 113.047326 -6.63947202 113.047326 -3 112 C-3 76.03 -3 40.06 -3 3 C-42.22767684 -0.1314566 -42.22767684 -0.1314566 -79 13 Z M-175 11 C-175 47.3 -175 83.6 -175 121 C-157.18 121.33 -139.36 121.66 -121 122 C-106 124 -106 124 -100.8125 125.1875 C-97.30046008 125.93596752 -96.21437556 126.00493781 -93 125 C-95.18376766 123.86722732 -97.37157128 122.74377211 -99.5625 121.625 C-100.47612305 121.14933594 -100.47612305 121.14933594 -101.40820312 120.6640625 C-102.32182617 120.2 -102.32182617 120.2 -103.25390625 119.7265625 C-103.80377197 119.44377441 -104.3536377 119.16098633 -104.92016602 118.86962891 C-112.14327749 115.84947125 -118.72760579 115.66430528 -126.49609375 115.5859375 C-127.68477554 115.56657135 -128.87345734 115.5472052 -130.09815979 115.5272522 C-133.8778679 115.46768911 -137.65760684 115.4211637 -141.4375 115.375 C-144.00717441 115.33679886 -146.5768363 115.29774589 -149.14648438 115.2578125 C-155.43087814 115.16200663 -161.71534787 115.07689141 -168 115 C-168.80023665 112.18246711 -169.1224847 109.6926819 -169.11352539 106.76728821 C-169.1134549 105.93023346 -169.1133844 105.09317871 -169.11331177 104.23075867 C-169.10556229 102.86610222 -169.10556229 102.86610222 -169.09765625 101.47387695 C-169.09619598 100.50929565 -169.09473572 99.54471436 -169.0932312 98.55090332 C-169.08942774 96.45834656 -169.08331384 94.36579302 -169.07516479 92.27324867 C-169.06241703 88.96676108 -169.05589003 85.66031352 -169.05102539 82.35380554 C-169.0395925 75.34001905 -169.02033669 68.32626558 -169 61.3125 C-168.97644854 53.1767164 -168.95605135 45.04095139 -168.94406128 36.90514183 C-168.93754995 33.63834017 -168.92504393 30.3715953 -168.91235352 27.10481262 C-168.90872333 25.11585541 -168.90537131 23.12689767 -168.90234375 21.13793945 C-168.89459427 19.76417397 -168.89459427 19.76417397 -168.88668823 18.36265564 C-168.88650776 16.24143413 -168.93750703 14.12030076 -169 12 C-169.33 11.67 -169.66 11.34 -170 11 C-171.65 11 -173.3 11 -175 11 Z M0 11 C0.00222061 12.27342255 0.00444122 13.54684509 0.00672913 14.8588562 C0.02696706 26.83717467 0.0419753 38.81548968 0.05181217 50.79382133 C0.05703933 56.95256129 0.06413398 63.11128749 0.07543945 69.27001953 C0.08627422 75.20924134 0.0922781 81.14844989 0.09487724 87.08768082 C0.09673042 89.35797459 0.100349 91.6282676 0.10573006 93.89855576 C0.11294828 97.06894268 0.11399061 100.2392742 0.11352539 103.40966797 C0.11712067 104.35625275 0.12071594 105.30283752 0.12442017 106.27810669 C0.1230455 107.13909973 0.12167084 108.00009277 0.12025452 108.88717651 C0.12117631 109.637516 0.1220981 110.38785549 0.12304783 111.16093254 C0 113 0 113 -1 115 C-1.97147224 115.00546844 -1.97147224 115.00546844 -2.96257019 115.01104736 C-9.76112548 115.05316511 -16.55902394 115.12271201 -23.35717773 115.20751953 C-25.88738403 115.23558097 -28.41767558 115.25686847 -30.94799805 115.27099609 C-34.60509424 115.29263145 -38.26118124 115.33938794 -41.91796875 115.390625 C-43.58909981 115.39246796 -43.58909981 115.39246796 -45.29399109 115.39434814 C-56.60248704 115.60079202 -66.79125316 118.31914445 -76 125 C-76 125.33 -76 125.66 -76 126 C-71.13171436 125.61378945 -66.37489041 125.16786296 -61.625 124 C-52.21708757 121.76643242 -42.36420474 121.84346735 -32.7421875 121.71875 C-30.46614548 121.68101106 -28.19010382 121.64325003 -25.9140625 121.60546875 C-22.36981004 121.55155813 -18.82553789 121.49928092 -15.28125 121.44775391 C-11.83065351 121.39620305 -8.38018559 121.33895982 -4.9296875 121.28125 C-3.32829422 121.26088684 -3.32829422 121.26088684 -1.69454956 121.2401123 C-0.22128708 121.21503601 -0.22128708 121.21503601 1.28173828 121.18945312 C2.14711212 121.17692505 3.01248596 121.16439697 3.90408325 121.15148926 C6.05845245 121.1297615 6.05845245 121.1297615 8 120 C8 84.03 8 48.06 8 11 C5.36 11 2.72 11 0 11 Z M-184 19 C-184 54.97 -184 90.94 -184 128 C-168.5003125 128.2475 -168.5003125 128.2475 -152.6875 128.5 C-149.46701904 128.55220703 -146.24653809 128.60441406 -142.9284668 128.65820312 C-128.61842234 128.88508834 -114.31226665 129.08465318 -100 129 C-100 128.67 -100 128.34 -100 128 C-116.27147362 124.3827198 -132.5201697 124.45175236 -149.125 124.3125 C-158.65375 124.209375 -168.1825 124.10625 -178 124 C-178 89.68 -178 55.36 -178 20 C-180.97 19.505 -180.97 19.505 -184 19 Z M12 19 C10.54292967 20.22826436 10.54292967 20.22826436 10.88647461 23.93441772 C10.88662453 25.73542036 10.89240437 27.53642713 10.90234375 29.33740234 C10.90380402 30.31784012 10.90526428 31.29827789 10.9067688 32.3084259 C10.9105851 34.44522984 10.91671236 36.58203057 10.92483521 38.71882248 C10.93754172 42.09702943 10.94409988 45.47519735 10.94897461 48.85342407 C10.96238366 57.24648034 10.98656596 65.63949971 11.01037598 74.03253174 C11.03007065 81.11632704 11.04572826 88.20010859 11.05593872 95.2839241 C11.06244106 98.61821185 11.07495103 101.95244355 11.08764648 105.28671265 C11.09127831 107.32574412 11.09463013 109.36477613 11.09765625 111.40380859 C11.10282257 112.33587631 11.10798889 113.26794403 11.11331177 114.22825623 C11.11338226 115.08076462 11.11345276 115.93327301 11.11352539 116.81161499 C11.115746 117.55235952 11.11796661 118.29310406 11.12025452 119.05629539 C11 121 11 121 10 124 C9.30446014 124.00808685 8.60892029 124.01617371 7.89230347 124.02450562 C1.27425706 124.10308391 -5.34360868 124.19055328 -11.96141243 124.28752708 C-15.36209319 124.33705821 -18.76274916 124.38338405 -22.16357422 124.421875 C-26.09098813 124.46802896 -30.01808853 124.52593629 -33.9453125 124.5859375 C-35.1417337 124.59748871 -36.33815491 124.60903992 -37.5708313 124.62094116 C-45.87205964 124.76311534 -53.8104249 125.65140242 -62 127 C-62 127.66 -62 128.32 -62 129 C-22.895 128.505 -22.895 128.505 17 128 C17 92.03 17 56.06 17 19 C15.35 19 13.7 19 12 19 Z " fill="#F5BF5D" transform="translate(228,87)"/>
<path d="M0 0 C0.33 0 0.66 0 1 0 C1 1.65 1 3.3 1 5 C3.64 5 6.28 5 9 5 C10.74146249 8.02146391 11.24844194 10.18243109 11.24050903 13.65704346 C11.24325836 14.58809906 11.24600769 15.51915466 11.24884033 16.47842407 C11.24164978 17.49262421 11.23445923 18.50682434 11.22705078 19.55175781 C11.22734283 20.62523468 11.22763489 21.69871155 11.22793579 22.80471802 C11.22654203 26.35426913 11.21097843 29.90361054 11.1953125 33.453125 C11.19158254 35.91363409 11.18873549 38.37414466 11.18673706 40.83465576 C11.17909929 47.31197202 11.15944947 53.78919865 11.1373291 60.26647949 C11.11687383 66.87555733 11.10773602 73.48464964 11.09765625 80.09375 C11.0762038 93.06253825 11.04245026 106.03126436 11 119 C7.44138947 120.49787412 4.81422456 121.25341031 0.9375 121.1875 C0.10089844 121.18105469 -0.73570312 121.17460937 -1.59765625 121.16796875 C-3.85287725 121.01028663 -5.8329974 120.62557812 -8 120 C-8 119.34 -8 118.68 -8 118 C-3.05 117.67 1.9 117.34 7 117 C6.67 81.36 6.34 45.72 6 9 C4.68 9 3.36 9 2 9 C2 42.33 2 75.66 2 110 C0.515 110.495 0.515 110.495 -1 111 C-1.99 110.34 -2.98 109.68 -4 109 C-3.01 108.505 -3.01 108.505 -2 108 C-1.99576806 107.44947244 -1.99153612 106.89894487 -1.98717594 106.33173466 C-1.88400071 92.95397692 -1.77531976 79.57627376 -1.66066074 66.19860935 C-1.60538097 59.72934782 -1.55195304 53.26008182 -1.50268555 46.79077148 C-1.45511637 40.55325678 -1.40277655 34.31579904 -1.34705925 28.07835197 C-1.32660184 25.69281359 -1.3078945 23.30725956 -1.29092598 20.9216938 C-1.26695667 17.59300171 -1.23689226 14.26441843 -1.20532227 10.93579102 C-1.1995668 9.93885727 -1.19381134 8.94192352 -1.18788147 7.91477966 C-1.17809265 7.01309052 -1.16830383 6.11140137 -1.15821838 5.18238831 C-1.14853956 4.0001888 -1.14853956 4.0001888 -1.1386652 2.79410648 C-1 1 -1 1 0 0 Z " fill="#F2CA54" transform="translate(238,98)"/>
<path d="M0 0 C1.32 0 2.64 0 4 0 C4 1.32 4 2.64 4 4 C7.3 4.33 10.6 4.66 14 5 C13.67 6.32 13.34 7.64 13 9 C12.90306746 10.51219849 12.85423086 12.02790098 12.84178162 13.54315186 C12.82709839 14.90187157 12.82709839 14.90187157 12.81211853 16.28804016 C12.80636307 17.27418808 12.8006076 18.260336 12.79467773 19.27636719 C12.77982834 20.84269142 12.77982834 20.84269142 12.76467896 22.44065857 C12.73308752 25.89270764 12.70831572 29.34477046 12.68359375 32.796875 C12.6630222 35.19012815 12.64202567 37.58337769 12.62062073 39.97662354 C12.56542089 46.27631705 12.51600233 52.57604323 12.46777344 58.87579346 C12.41754323 65.30394398 12.36186508 71.73204704 12.30664062 78.16015625 C12.19908456 90.77339668 12.09744889 103.38667764 12 116 C11.67 116 11.34 116 11 116 C11 80.36 11 44.72 11 8 C8.36 8 5.72 8 3 8 C3.33 41.66 3.66 75.32 4 110 C3.01 110.495 3.01 110.495 2 111 C2 110.01 2 109.02 2 108 C1.34 108 0.68 108 0 108 C0 72.36 0 36.72 0 0 Z " fill="#F1BF73" transform="translate(225,90)"/>
<path d="M0 0 C0.33 0 0.66 0 1 0 C1 1.65 1 3.3 1 5 C3.475 5.99 3.475 5.99 6 7 C5.67 7.66 5.34 8.32 5 9 C4.01 9 3.02 9 2 9 C2 42.33 2 75.66 2 110 C0.515 110.495 0.515 110.495 -1 111 C-1.99 110.34 -2.98 109.68 -4 109 C-3.01 108.505 -3.01 108.505 -2 108 C-1.99576806 107.44947244 -1.99153612 106.89894487 -1.98717594 106.33173466 C-1.88400071 92.95397692 -1.77531976 79.57627376 -1.66066074 66.19860935 C-1.60538097 59.72934782 -1.55195304 53.26008182 -1.50268555 46.79077148 C-1.45511637 40.55325678 -1.40277655 34.31579904 -1.34705925 28.07835197 C-1.32660184 25.69281359 -1.3078945 23.30725956 -1.29092598 20.9216938 C-1.26695667 17.59300171 -1.23689226 14.26441843 -1.20532227 10.93579102 C-1.1995668 9.93885727 -1.19381134 8.94192352 -1.18788147 7.91477966 C-1.17809265 7.01309052 -1.16830383 6.11140137 -1.15821838 5.18238831 C-1.14853956 4.0001888 -1.14853956 4.0001888 -1.1386652 2.79410648 C-1 1 -1 1 0 0 Z " fill="#FEBD5F" transform="translate(238,98)"/>
<path d="M0 0 C0.33 0 0.66 0 1 0 C1.33 33.33 1.66 66.66 2 101 C2.66 101 3.32 101 4 101 C3.34 102.32 2.68 103.64 2 105 C1.01 104.67 0.02 104.34 -1 104 C-1.74854493 97.49855775 -2.14892304 91.10141597 -2.14526367 84.55883789 C-2.14862228 83.67462158 -2.1519809 82.79040527 -2.15544128 81.87939453 C-2.16484352 78.99380036 -2.16688803 76.10826472 -2.16796875 73.22265625 C-2.17118563 71.20389279 -2.17455003 69.18512956 -2.17805481 67.16636658 C-2.18401684 62.95457416 -2.18589741 58.74280219 -2.18530273 54.53100586 C-2.18520055 49.12830116 -2.19892391 43.72572621 -2.21607494 38.32305241 C-2.22716903 34.16329846 -2.22922285 30.00357635 -2.22869301 25.84380913 C-2.2298743 23.85065699 -2.23430439 21.85750406 -2.24202538 19.86436653 C-2.25178545 17.08794986 -2.24896454 14.31182136 -2.24291992 11.53540039 C-2.24853943 10.71097946 -2.25415894 9.88655853 -2.25994873 9.03715515 C-2.238447 5.16503598 -2.19855944 3.29783916 0 0 Z " fill="#F8D243" transform="translate(51,107)"/>
<path d="M0 0 C0.33 0 0.66 0 1 0 C1 34.98 1 69.96 1 106 C0.34 106 -0.32 106 -1 106 C-1.15606303 96.42687301 -1.30416638 86.85366161 -1.4429636 77.28026867 C-1.50769161 72.8317168 -1.57484608 68.38323322 -1.64819336 63.93481445 C-2.61066435 5.2213287 -2.61066435 5.2213287 0 0 Z " fill="#FDBC4F" transform="translate(42,109)"/>
<path d="M0 0 C1.4540625 0.0309375 1.4540625 0.0309375 2.9375 0.0625 C1.9475 0.5575 1.9475 0.5575 0.9375 1.0625 C0.9375 1.7225 0.9375 2.3825 0.9375 3.0625 C0.2775 3.0625 -0.3825 3.0625 -1.0625 3.0625 C-1.0625 39.0325 -1.0625 75.0025 -1.0625 112.0625 C11.1475 112.0625 23.3575 112.0625 35.9375 112.0625 C35.9375 112.3925 35.9375 112.7225 35.9375 113.0625 C28.0175 113.0625 20.0975 113.0625 11.9375 113.0625 C11.4425 114.0525 11.4425 114.0525 10.9375 115.0625 C9.81601562 114.93681641 9.81601562 114.93681641 8.671875 114.80859375 C7.68703125 114.70675781 6.7021875 114.60492188 5.6875 114.5 C4.71296875 114.39558594 3.7384375 114.29117188 2.734375 114.18359375 C0.1743648 114.07275532 -1.64398159 114.28511908 -4.0625 115.0625 C-4.0625 114.0725 -4.0625 113.0825 -4.0625 112.0625 C-3.4025 112.0625 -2.7425 112.0625 -2.0625 112.0625 C-2.3925 77.7425 -2.7225 43.4225 -3.0625 8.0625 C-3.3925 8.0625 -3.7225 8.0625 -4.0625 8.0625 C-4.10491723 5.72955225 -4.10342937 3.39547433 -4.0625 1.0625 C-3.0625 0.0625 -3.0625 0.0625 0 0 Z " fill="#EEB56E" transform="translate(45.0625,102.9375)"/>
<path d="M0 0 C16.5 0 33 0 50 0 C50 0.33 50 0.66 50 1 C45.71 1 41.42 1 37 1 C37 1.66 37 2.32 37 3 C38.32 3.33 39.64 3.66 41 4 C27.14 4 13.28 4 -1 4 C-0.34 3.34 0.32 2.68 1 2 C0.67 1.34 0.34 0.68 0 0 Z " fill="#F4C981" transform="translate(193,215)"/>
<path d="M0 0 C16.83 0.33 33.66 0.66 51 1 C51.495 2.485 51.495 2.485 52 4 C34.18 4 16.36 4 -2 4 C-1.34 2.68 -0.68 1.36 0 0 Z " fill="#FDB369" transform="translate(55,208)"/>
<path d="M0 0 C16.5 0 33 0 50 0 C50 0.66 50 1.32 50 2 C50.66 2.33 51.32 2.66 52 3 C35.5 3 19 3 2 3 C2 4.32 2 5.64 2 7 C1.34 7 0.68 7 0 7 C0 4.69 0 2.38 0 0 Z " fill="#F4B256" transform="translate(59,87)"/>
<path d="M0 0 C0 0.99 0 1.98 0 3 C-7.35060015 3.0759439 -14.70109947 3.12855502 -22.05200195 3.16479492 C-24.55366802 3.17989944 -27.05530753 3.20038429 -29.55688477 3.22631836 C-33.14866684 3.26262775 -36.74009941 3.27970975 -40.33203125 3.29296875 C-41.45398392 3.30845261 -42.57593658 3.32393646 -43.73188782 3.33988953 C-45.29316658 3.34022942 -45.29316658 3.34022942 -46.88598633 3.34057617 C-47.80309891 3.34723801 -48.72021149 3.35389984 -49.66511536 3.36076355 C-52.42027182 2.93506371 -53.28887167 2.14361642 -55 0 C-47.97094918 -0.16848553 -40.94173978 -0.32832702 -33.91235352 -0.48217773 C-31.52135779 -0.53552718 -29.13040525 -0.59085089 -26.73950195 -0.64819336 C-23.30168979 -0.73030102 -19.86378451 -0.80529362 -16.42578125 -0.87890625 C-14.82395744 -0.91945885 -14.82395744 -0.91945885 -13.18977356 -0.96083069 C-11.68878365 -0.99097511 -11.68878365 -0.99097511 -10.1574707 -1.02172852 C-9.28032913 -1.04171402 -8.40318756 -1.06169952 -7.49946594 -1.08229065 C-4.89982518 -0.99670192 -2.53168728 -0.57970787 0 0 Z " fill="#F3B758" transform="translate(228,87)"/>
<path d="M0 0 C0 0.99 0 1.98 0 3 C-10.74732224 3.89053878 -21.42115929 4.15750095 -32.20214844 4.13037109 C-34.78846866 4.1249189 -37.37462189 4.13040118 -39.9609375 4.13671875 C-41.61458371 4.13605939 -43.26822983 4.13478117 -44.921875 4.1328125 C-45.69053894 4.13483673 -46.45920288 4.13686096 -47.25115967 4.13894653 C-50.43371938 4.12485963 -52.95823241 4.01392253 -56 3 C-55.67 2.34 -55.34 1.68 -55 1 C-53.82630859 1.12568359 -53.82630859 1.12568359 -52.62890625 1.25390625 C-51.11103516 1.40666016 -51.11103516 1.40666016 -49.5625 1.5625 C-48.55316406 1.66691406 -47.54382813 1.77132812 -46.50390625 1.87890625 C-45.26447266 1.93884766 -45.26447266 1.93884766 -44 2 C-43.67 1.67 -43.34 1.34 -43 1 C-41.44459564 0.84151986 -39.88241289 0.74871705 -38.3203125 0.68359375 C-36.84498047 0.6206311 -36.84498047 0.6206311 -35.33984375 0.55639648 C-34.27894531 0.51716064 -33.21804687 0.4779248 -32.125 0.4375 C-31.05121094 0.3950415 -29.97742188 0.35258301 -28.87109375 0.30883789 C-19.24444047 -0.0450413 -9.63150911 -0.10222121 0 0 Z " fill="#F9D282" transform="translate(100,215)"/>
<path d="M0 0 C18.48 0 36.96 0 56 0 C55.67 1.32 55.34 2.64 55 4 C42.94320378 4.11279747 30.88835205 4.04620569 18.83477783 3.73654175 C16.8293517 3.68790867 14.82359527 3.65358578 12.81787109 3.61938477 C11.58504395 3.58385498 10.3522168 3.5483252 9.08203125 3.51171875 C7.43037964 3.47244263 7.43037964 3.47244263 5.74536133 3.43237305 C3 3 3 3 0 0 Z " fill="#F7C275" transform="translate(183,208)"/>
<path d="M0 0 C0.33 0 0.66 0 1 0 C1 1.65 1 3.3 1 5 C3.475 5.99 3.475 5.99 6 7 C5.67 7.66 5.34 8.32 5 9 C4.01 9 3.02 9 2 9 C2 31.11 2 53.22 2 76 C1.67 76 1.34 76 1 76 C0.97494385 74.95545654 0.9498877 73.91091309 0.92407227 72.8347168 C0.82991461 68.96007984 0.72971428 65.08561866 0.62768555 61.21118164 C0.58436833 59.53414013 0.54269093 57.85705542 0.50268555 56.17993164 C0.44490515 53.76956159 0.3812332 51.3594083 0.31640625 48.94921875 C0.29969376 48.19912033 0.28298126 47.44902191 0.26576233 46.67619324 C0.17655767 43.54322008 -0.00236453 40.9929064 -1 38 C-1.0970997 35.20755924 -1.139961 32.44079732 -1.1328125 29.6484375 C-1.13376923 28.83380035 -1.13472595 28.01916321 -1.13571167 27.17984009 C-1.13639166 25.46006188 -1.13454998 23.74028108 -1.13037109 22.02050781 C-1.12500649 19.37819717 -1.13032925 16.73605545 -1.13671875 14.09375 C-1.13605821 12.42447879 -1.13477754 10.75520768 -1.1328125 9.0859375 C-1.13483673 8.29118011 -1.13686096 7.49642273 -1.13894653 6.67758179 C-1.11496014 1.11496014 -1.11496014 1.11496014 0 0 Z " fill="#FDD63C" transform="translate(238,98)"/>
<path d="M0 0 C2.31 0 4.62 0 7 0 C6.67 0.99 6.34 1.98 6 3 C5.89996389 4.47184649 5.85388753 5.94770489 5.84178162 7.42289734 C5.8319928 8.32733582 5.82220398 9.23177429 5.81211853 10.16362 C5.80636307 11.15336319 5.8006076 12.14310638 5.79467773 13.1628418 C5.77982834 14.72894699 5.77982834 14.72894699 5.76467896 16.32669067 C5.73304415 19.78417682 5.7082986 23.24167671 5.68359375 26.69921875 C5.66302594 29.09390117 5.64202952 31.48857995 5.62062073 33.883255 C5.56538222 40.19118297 5.51598074 46.4991438 5.46777344 52.80712891 C5.41757144 59.24189179 5.36187858 65.67660685 5.30664062 72.11132812 C5.19903727 84.74084431 5.09741071 97.3704013 5 110 C4.67 110 4.34 110 4 110 C3.99761165 109.4452405 3.99522329 108.890481 3.99276257 108.3189106 C3.93367555 94.83223833 3.85797614 81.34574792 3.76428509 67.8592701 C3.71948227 61.33734487 3.68024816 54.81548356 3.65356445 48.29345703 C3.62763022 42.00397661 3.58729844 35.71474084 3.53681374 29.42541122 C3.52007794 27.02117827 3.50860568 24.61690294 3.50238609 22.21261978 C3.49281784 18.85518756 3.46484616 15.49839083 3.43237305 12.14111328 C3.43380814 11.13842407 3.43524323 10.13573486 3.4367218 9.10266113 C3.42418365 8.19118317 3.41164551 7.2797052 3.39872742 6.34060669 C3.39411845 5.54602114 3.38950949 4.75143559 3.38476086 3.93277168 C3.25778977 3.29495703 3.13081869 2.65714237 3 2 C2.01 1.34 1.02 0.68 0 0 Z " fill="#ECB669" transform="translate(232,96)"/>
<path d="M0 0 C1.22332031 -0.00386719 2.44664063 -0.00773438 3.70703125 -0.01171875 C9.8575452 -0.00506955 15.79617603 0.16997279 21.875 1.125 C21.875 1.785 21.875 2.445 21.875 3.125 C6.365 3.125 -9.145 3.125 -25.125 3.125 C-24.795 2.465 -24.465 1.805 -24.125 1.125 C-16.3876934 -0.64720864 -7.88085726 -0.02507166 0 0 Z " fill="#F7CA49" transform="translate(84.125,198.875)"/>
<path d="M0 0 C11.44245454 0.46804443 22.67534111 1.25644265 34 3 C34 3.33 34 3.66 34 4 C17.5 4 1 4 -16 4 C-16 3.67 -16 3.34 -16 3 C-11.05 3 -6.1 3 -1 3 C-0.67 2.01 -0.34 1.02 0 0 Z " fill="#F2BC6A" transform="translate(101,215)"/>
<path d="M0 0 C16.5 0 33 0 50 0 C50 0.33 50 0.66 50 1 C47.36 1.33 44.72 1.66 42 2 C42 2.33 42 2.66 42 3 C28.47 3 14.94 3 1 3 C0.67 2.01 0.34 1.02 0 0 Z " fill="#FBB260" transform="translate(174,209)"/>
<path d="M0 0 C0.99 0.99 1.98 1.98 3 3 C-1.62 3.33 -6.24 3.66 -11 4 C-11 4.66 -11 5.32 -11 6 C-13.31 6 -15.62 6 -18 6 C-18.33 4.68 -18.66 3.36 -19 2 C-16.9620493 1.46481117 -14.91940991 0.94745907 -12.875 0.4375 C-11.73804688 0.14746094 -10.60109375 -0.14257812 -9.4296875 -0.44140625 C-5.86209541 -1.02246054 -3.46877548 -0.97774266 0 0 Z " fill="#F9C24E" transform="translate(177,210)"/>
<path d="M0 0 C0.33 0 0.66 0 1 0 C1 8.58 1 17.16 1 26 C0.01 26.33 -0.98 26.66 -2 27 C-2.99 26.34 -3.98 25.68 -5 25 C-4.34 24.67 -3.68 24.34 -3 24 C-2.54666918 21.68962676 -2.54666918 21.68962676 -2.40234375 18.90625 C-2.32306641 17.87628906 -2.24378906 16.84632813 -2.16210938 15.78515625 C-2.08798828 14.70105469 -2.01386719 13.61695313 -1.9375 12.5 C-1.78386152 10.36429819 -1.62651345 8.22885888 -1.46484375 6.09375 C-1.36610962 4.66579102 -1.36610962 4.66579102 -1.26538086 3.20898438 C-1 1 -1 1 0 0 Z " fill="#FED658" transform="translate(239,182)"/>
<path d="M0 0 C0.33 0 0.66 0 1 0 C1 1.98 1 3.96 1 6 C1.66 6 2.32 6 3 6 C3.33 12.93 3.66 19.86 4 27 C3.34 27.33 2.68 27.66 2 28 C2 27.01 2 26.02 2 25 C1.34 25 0.68 25 0 25 C0 16.75 0 8.5 0 0 Z " fill="#F1BE73" transform="translate(225,173)"/>
<path d="M0 0 C6.27 0 12.54 0 19 0 C19 0.99 19 1.98 19 3 C8.605 3.495 8.605 3.495 -2 4 C-1.34 2.68 -0.68 1.36 0 0 Z " fill="#F8D447" transform="translate(81,215)"/>
<path d="M0 0 C0.66 1.32 1.32 2.64 2 4 C-2.66666667 6.33333333 -7.33333333 8.66666667 -12 11 C-12.99 10.67 -13.98 10.34 -15 10 C-15 9.34 -15 8.68 -15 8 C-12.48046875 6.30859375 -12.48046875 6.30859375 -9.1875 4.4375 C-7.56908203 3.50744141 -7.56908203 3.50744141 -5.91796875 2.55859375 C-3 1 -3 1 0 0 Z " fill="#F4C254" transform="translate(163,202)"/>
<path d="M0 0 C0.84061981 0.02361099 1.68123962 0.04722198 2.54733276 0.07154846 C5.2374537 0.14824263 7.9272909 0.23224208 10.6171875 0.31640625 C12.43878811 0.36962119 14.26040264 0.42236162 16.08203125 0.47460938 C20.55226368 0.60386554 25.0222551 0.73967471 29.4921875 0.87890625 C29.4921875 1.20890625 29.4921875 1.53890625 29.4921875 1.87890625 C21.5721875 1.87890625 13.6521875 1.87890625 5.4921875 1.87890625 C5.1621875 2.53890625 4.8321875 3.19890625 4.4921875 3.87890625 C3.74453125 3.79511719 2.996875 3.71132812 2.2265625 3.625 C1.24171875 3.52316406 0.256875 3.42132813 -0.7578125 3.31640625 C-2.21960938 3.15978516 -2.21960938 3.15978516 -3.7109375 3 C-6.2709477 2.88916157 -8.08929409 3.10152533 -10.5078125 3.87890625 C-10.5078125 2.88890625 -10.5078125 1.89890625 -10.5078125 0.87890625 C-7.22158332 -0.76420834 -3.60054599 -0.11858112 0 0 Z " fill="#EDBE7A" transform="translate(51.5078125,214.12109375)"/>
<path d="M0 0 C1.65 0 3.3 0 5 0 C5.35191406 0.96679688 5.35191406 0.96679688 5.7109375 1.953125 C6.81161073 4.2077908 6.81161073 4.2077908 9.1640625 4.609375 C9.97617188 4.65578125 10.78828125 4.7021875 11.625 4.75 C12.85089844 4.83507812 12.85089844 4.83507812 14.1015625 4.921875 C14.72804687 4.94765625 15.35453125 4.9734375 16 5 C16 5.33 16 5.66 16 6 C11.05 6 6.1 6 1 6 C1 5.34 1 4.68 1 4 C0.34 3.67 -0.32 3.34 -1 3 C-0.67 2.01 -0.34 1.02 0 0 Z " fill="#F3C175" transform="translate(153,213)"/>
<path d="M0 0 C-0.33 1.32 -0.66 2.64 -1 4 C-3.97 4 -6.94 4 -10 4 C-10 3.34 -10 2.68 -10 2 C-11.65 2 -13.3 2 -15 2 C-15 1.67 -15 1.34 -15 1 C-9.94997778 -0.03590199 -5.12583611 -0.10251672 0 0 Z " fill="#FBBE6D" transform="translate(239,208)"/>
<path d="M0 0 C2.64 0 5.28 0 8 0 C7.01 0.33 6.02 0.66 5 1 C5 1.99 5 2.98 5 4 C-1.93 4 -8.86 4 -16 4 C-16 3.67 -16 3.34 -16 3 C-11.05 3 -6.1 3 -1 3 C-0.67 2.01 -0.34 1.02 0 0 Z " fill="#EEC78F" transform="translate(101,215)"/>
<path d="M0 0 C4.29 0 8.58 0 13 0 C13.33 0.99 13.66 1.98 14 3 C12.41676312 3.027193 10.83338938 3.04648306 9.25 3.0625 C7.92742187 3.07990234 7.92742187 3.07990234 6.578125 3.09765625 C4.2181162 3.00826198 2.25501476 2.66912821 0 2 C0 1.34 0 0.68 0 0 Z " fill="#FAD06B" transform="translate(230,216)"/>
<path d="M0 0 C0.99 0.99 1.98 1.98 3 3 C-0.63 3.33 -4.26 3.66 -8 4 C-8.66 2.68 -9.32 1.36 -10 0 C-6.41167292 -1.24211322 -3.6556535 -0.93335834 0 0 Z " fill="#FACE42" transform="translate(177,210)"/>
<path d="M0 0 C0 1.32 0 2.64 0 4 C-0.99 4 -1.98 4 -3 4 C-3 6.64 -3 9.28 -3 12 C-3.99 12.495 -3.99 12.495 -5 13 C-5 9.04 -5 5.08 -5 1 C-2 0 -2 0 0 0 Z " fill="#FBBC55" transform="translate(146,100)"/>
<path d="M0 0 C1.0828125 0.37125 1.0828125 0.37125 2.1875 0.75 C-0.77533313 3.13672669 -3.75520509 5.4853371 -6.8125 7.75 C-7.1425 6.43 -7.4725 5.11 -7.8125 3.75 C-3.50480769 -0.31153846 -3.50480769 -0.31153846 0 0 Z " fill="#F6C57B" transform="translate(152.8125,95.25)"/>
<path d="M0 0 C3.3 0 6.6 0 10 0 C7.17446016 4.23830976 4.87819112 3.97715348 0 5 C0 3.35 0 1.7 0 0 Z " fill="#F3BC6B" transform="translate(50,95)"/>
<path d="M0 0 C2.9719385 1.12451727 5.33440687 2.22293791 8 4 C8 4.66 8 5.32 8 6 C5.75 6.25 5.75 6.25 3 6 C0.6875 4 0.6875 4 -1 2 C-0.67 1.34 -0.34 0.68 0 0 Z " fill="#F7B764" transform="translate(132,207)"/>
<path d="M0 0 C1.95901454 0.11382653 3.9172338 0.24141125 5.875 0.375 C6.96554688 0.44460937 8.05609375 0.51421875 9.1796875 0.5859375 C12 1 12 1 14 3 C12.22925083 3.02705729 10.45838289 3.04642195 8.6875 3.0625 C7.70136719 3.07410156 6.71523438 3.08570313 5.69921875 3.09765625 C3 3 3 3 0 2 C0 1.34 0 0.68 0 0 Z " fill="#FCDC70" transform="translate(44,216)"/>
<path d="M0 0 C1.4540625 0.0309375 1.4540625 0.0309375 2.9375 0.0625 C1.9475 0.5575 1.9475 0.5575 0.9375 1.0625 C0.9375 1.7225 0.9375 2.3825 0.9375 3.0625 C0.2775 3.0625 -0.3825 3.0625 -1.0625 3.0625 C-1.7225 4.7125 -2.3825 6.3625 -3.0625 8.0625 C-3.3925 8.0625 -3.7225 8.0625 -4.0625 8.0625 C-4.10491723 5.72955225 -4.10342937 3.39547433 -4.0625 1.0625 C-3.0625 0.0625 -3.0625 0.0625 0 0 Z " fill="#F4B860" transform="translate(45.0625,102.9375)"/>
<path d="M0 0 C0.33 0 0.66 0 1 0 C1 3.96 1 7.92 1 12 C0.01 12.495 0.01 12.495 -1 13 C-1.22245393 11.39773045 -1.42746669 9.79303233 -1.625 8.1875 C-1.74101563 7.29417969 -1.85703125 6.40085937 -1.9765625 5.48046875 C-2 3 -2 3 0 0 Z " fill="#F7C36E" transform="translate(51,107)"/>
<path d="M0 0 C0.33 0.99 0.66 1.98 1 3 C-1.31 3.33 -3.62 3.66 -6 4 C-6.33 3.01 -6.66 2.02 -7 1 C-4.53721199 -0.231394 -2.7204945 -0.07159196 0 0 Z " fill="#F5BC70" transform="translate(171,201)"/>
<path d="M0 0 C1.65 0 3.3 0 5 0 C5.66 1.32 6.32 2.64 7 4 C4.03 4 1.06 4 -2 4 C-1.34 2.68 -0.68 1.36 0 0 Z " fill="#FDB374" transform="translate(55,208)"/>
<path d="M0 0 C1.98 0 3.96 0 6 0 C6.66 1.65 7.32 3.3 8 5 C7.01 5.33 6.02 5.66 5 6 C3.35 4.02 1.7 2.04 0 0 Z " fill="#EFB964" transform="translate(241,103)"/>
<path d="M0 0 C0.66 1.32 1.32 2.64 2 4 C-0.3125 4.625 -0.3125 4.625 -3 5 C-3.99 4.34 -4.98 3.68 -6 3 C-4.02 2.01 -2.04 1.02 0 0 Z " fill="#F4CD44" transform="translate(157,91)"/>
<path d="M0 0 C0 0.99 0 1.98 0 3 C-1.65 3.33 -3.3 3.66 -5 4 C-5.33 3.01 -5.66 2.02 -6 1 C-4 0 -4 0 0 0 Z " fill="#F8BE54" transform="translate(164,90)"/>
<path d="M0 0 C2.31 0 4.62 0 7 0 C7 0.99 7 1.98 7 3 C6.01 3.33 5.02 3.66 4 4 C2.68 2.68 1.36 1.36 0 0 Z " fill="#FAC549" transform="translate(123,91)"/>
<path d="M0 0 C2.31 0.33 4.62 0.66 7 1 C5.8125 2.5625 5.8125 2.5625 4 4 C1.3125 3.6875 1.3125 3.6875 -1 3 C-0.67 2.01 -0.34 1.02 0 0 Z " fill="#F3BE76" transform="translate(120,89)"/>
<path d="M0 0 C0.598125 0.20625 1.19625 0.4125 1.8125 0.625 C1.8125 1.285 1.8125 1.945 1.8125 2.625 C0 3.6875 0 3.6875 -2.1875 4.625 C-3.1775 4.295 -4.1675 3.965 -5.1875 3.625 C-5.1875 2.965 -5.1875 2.305 -5.1875 1.625 C-2.1875 -0.375 -2.1875 -0.375 0 0 Z " fill="#F7CE44" transform="translate(153.1875,208.375)"/>
<path d="M0 0 C2.31 0 4.62 0 7 0 C6.34 2.64 5.68 5.28 5 8 C4.67 8 4.34 8 4 8 C3.896875 7.05125 3.79375 6.1025 3.6875 5.125 C3.31460705 1.70892499 3.31460705 1.70892499 0 0 Z " fill="#F5BB68" transform="translate(232,96)"/>
<path d="M0 0 C2.97 0.495 2.97 0.495 6 1 C6 1.99 6 2.98 6 4 C3.69 3.34 1.38 2.68 -1 2 C-0.67 1.34 -0.34 0.68 0 0 Z " fill="#F8C451" transform="translate(106,209)"/>
<path d="M0 0 C0.66 0.33 1.32 0.66 2 1 C2 2.65 2 4.3 2 6 C1.01 6.495 1.01 6.495 0 7 C0 6.01 0 5.02 0 4 C-0.66 4 -1.32 4 -2 4 C-1.34 2.68 -0.68 1.36 0 0 Z " fill="#F8CE95" transform="translate(227,194)"/>
</svg>
